<svg width="147" height="140" viewBox="0 0 147 140" fill="none" xmlns="http://www.w3.org/2000/svg">
<path d="M130.5 64C130.5 73.5049 128.424 82.534 124.697 90.6465C114.595 112.692 92.3335 128 66.5 128C40.6665 128 18.4049 112.692 8.30324 90.6465C4.57568 82.534 2.5 73.5049 2.5 64C2.5 28.653 31.153 0 66.5 0C101.847 0 130.5 28.653 130.5 64Z" fill="url(#paint0_linear_13306_36776)"/>
<path fill-rule="evenodd" clip-rule="evenodd" d="M21.3 90.48H85.38C81.8012 90.48 78.9 87.5788 78.9 84C78.9 80.4212 81.8012 77.52 85.38 77.52H21.3H19.14C14.3683 77.52 10.5 81.3882 10.5 86.16V90.48H19.14H21.3Z" fill="url(#paint1_linear_13306_36776)"/>
<path d="M60.9 88.32C60.9 82.3553 56.0647 77.52 50.1 77.52H20.58V96.96C20.58 102.925 25.4153 107.76 31.38 107.76H60.9V88.32Z" fill="url(#paint2_linear_13306_36776)"/>
<path d="M36.42 30C36.42 24.0353 41.2554 19.2 47.22 19.2H101.22V88.86C101.22 99.2982 92.7582 107.76 82.32 107.76H36.42V30Z" fill="url(#paint3_linear_13306_36776)"/>
<path fill-rule="evenodd" clip-rule="evenodd" d="M101.22 36.48H42.9C47.6718 36.48 51.54 32.6118 51.54 27.84C51.54 23.0683 47.6718 19.2 42.9 19.2H101.22C105.992 19.2 109.86 23.0683 109.86 27.84C109.86 32.6118 105.992 36.48 101.22 36.48Z" fill="url(#paint4_linear_13306_36776)"/>
<path fill-rule="evenodd" clip-rule="evenodd" d="M36.4201 99.8428V107.76H28.5249C32.8866 107.747 36.4186 104.207 36.4201 99.8428Z" fill="#D4D8E1"/>
<path fill-rule="evenodd" clip-rule="evenodd" d="M17.7023 77.52L20.58 77.52L20.58 80.4C20.58 78.8102 19.2918 77.5213 17.7023 77.52Z" fill="#D0D4DE"/>
<rect x="56.5801" y="60.24" width="37.44" height="5.76" rx="2.88" fill="url(#paint5_linear_13306_36776)"/>
<rect x="46.5001" y="60.24" width="5.76" height="5.76" rx="2.88" fill="url(#paint6_linear_13306_36776)"/>
<rect x="56.5801" y="73.2" width="29.52" height="5.76" rx="2.88" fill="url(#paint7_linear_13306_36776)"/>
<rect x="46.5001" y="73.2" width="5.76" height="5.76" rx="2.88" fill="url(#paint8_linear_13306_36776)"/>
<rect x="56.5801" y="47.28" width="37.44" height="5.76" rx="2.88" fill="url(#paint9_linear_13306_36776)"/>
<rect x="46.5001" y="47.28" width="5.76" height="5.76" rx="2.88" fill="url(#paint10_linear_13306_36776)"/>
<path fill-rule="evenodd" clip-rule="evenodd" d="M117.555 61.9104C116.977 61.7641 116.627 61.1768 116.773 60.5985L117.303 58.5045C117.449 57.9262 118.037 57.5761 118.615 57.7224C119.193 57.8686 119.543 58.456 119.397 59.0343L118.867 61.1283C118.721 61.7065 118.133 62.0567 117.555 61.9104ZM120.829 64.7873C120.605 64.2345 120.871 63.6047 121.424 63.3806L123.426 62.5691C123.978 62.345 124.608 62.6114 124.832 63.1642C125.056 63.717 124.79 64.3467 124.237 64.5708L122.235 65.3824C121.683 65.6065 121.053 65.34 120.829 64.7873ZM121.738 68.9216C121.161 68.7694 120.57 69.1134 120.418 69.6902C120.266 70.2669 120.61 70.8578 121.187 71.0101L123.275 71.5615C123.852 71.7138 124.443 71.3697 124.595 70.793C124.747 70.2163 124.403 69.6253 123.827 69.4731L121.738 68.9216Z" fill="#A1A5AC"/>
<rect x="109.228" y="90.1483" width="1.44375" height="9.15595" transform="rotate(-45 109.228 90.1483)" stroke="url(#paint11_linear_13306_36776)" stroke-width="1.44375"/>
<path d="M109.047 93.6792L113.779 88.9473L128.192 103.36L123.46 108.092L109.047 93.6792Z" fill="url(#paint12_linear_13306_36776)"/>
<path d="M116.34 74.64C116.34 85.7741 107.314 94.8 96.18 94.8C85.046 94.8 76.02 85.7741 76.02 74.64C76.02 63.5059 85.046 54.48 96.18 54.48C107.314 54.48 116.34 63.5059 116.34 74.64Z" fill="#D9DCE0" fill-opacity="0.5"/>
<path fill-rule="evenodd" clip-rule="evenodd" d="M96.18 88.32C103.735 88.32 109.86 82.1953 109.86 74.64C109.86 67.0848 103.735 60.96 96.18 60.96C88.6248 60.96 82.5 67.0848 82.5 74.64C82.5 82.1953 88.6248 88.32 96.18 88.32ZM96.18 94.8C107.314 94.8 116.34 85.7741 116.34 74.64C116.34 63.5059 107.314 54.48 96.18 54.48C85.046 54.48 76.02 63.5059 76.02 74.64C76.02 85.7741 85.046 94.8 96.18 94.8Z" fill="url(#paint13_linear_13306_36776)"/>
<g opacity="0.4" filter="url(#filter0_f_13306_36776)">
<line x1="139.254" y1="120.646" x2="154.254" y2="135.646" stroke="white"/>
</g>
<defs>
<filter id="filter0_f_13306_36776" x="134.9" y="116.293" width="23.7072" height="23.7071" filterUnits="userSpaceOnUse" color-interpolation-filters="sRGB">
<feFlood flood-opacity="0" result="BackgroundImageFix"/>
<feBlend mode="normal" in="SourceGraphic" in2="BackgroundImageFix" result="shape"/>
<feGaussianBlur stdDeviation="2" result="effect1_foregroundBlur_13306_36776"/>
</filter>
<linearGradient id="paint0_linear_13306_36776" x1="66.5" y1="0" x2="66.5" y2="128" gradientUnits="userSpaceOnUse">
<stop stop-color="#F7FAFF"/>
<stop offset="1" stop-color="#FBFBFB"/>
</linearGradient>
<linearGradient id="paint1_linear_13306_36776" x1="45.9805" y1="90.0869" x2="45.9944" y2="78.1902" gradientUnits="userSpaceOnUse">
<stop stop-color="#C2C5CD"/>
<stop offset="0.953081" stop-color="#B1B4BD"/>
</linearGradient>
<linearGradient id="paint2_linear_13306_36776" x1="39.6849" y1="106.843" x2="39.8258" y2="79.0845" gradientUnits="userSpaceOnUse">
<stop stop-color="#A8ADB8"/>
<stop offset="1" stop-color="#CFD3DD"/>
</linearGradient>
<linearGradient id="paint3_linear_13306_36776" x1="70.5158" y1="105.074" x2="70.2967" y2="45.4808" gradientUnits="userSpaceOnUse">
<stop stop-color="#F3F6FC"/>
<stop offset="1" stop-color="#EEF2FA"/>
</linearGradient>
<linearGradient id="paint4_linear_13306_36776" x1="85.02" y1="19.2" x2="85.02" y2="37.92" gradientUnits="userSpaceOnUse">
<stop stop-color="#E1E5EB"/>
<stop offset="0.970777" stop-color="#ECF0F5"/>
</linearGradient>
<linearGradient id="paint5_linear_13306_36776" x1="56.571" y1="63.1173" x2="94.0218" y2="63.1173" gradientUnits="userSpaceOnUse">
<stop stop-color="#989FB0"/>
<stop offset="1" stop-color="#AAB2C5"/>
</linearGradient>
<linearGradient id="paint6_linear_13306_36776" x1="46.4987" y1="63.1173" x2="52.2604" y2="63.1173" gradientUnits="userSpaceOnUse">
<stop stop-color="#989FB0"/>
<stop offset="1" stop-color="#AAB2C5"/>
</linearGradient>
<linearGradient id="paint7_linear_13306_36776" x1="56.5729" y1="76.0773" x2="86.1014" y2="76.0773" gradientUnits="userSpaceOnUse">
<stop stop-color="#989FB0"/>
<stop offset="1" stop-color="#AAB2C5"/>
</linearGradient>
<linearGradient id="paint8_linear_13306_36776" x1="46.4987" y1="76.0773" x2="52.2604" y2="76.0773" gradientUnits="userSpaceOnUse">
<stop stop-color="#989FB0"/>
<stop offset="1" stop-color="#AAB2C5"/>
</linearGradient>
<linearGradient id="paint9_linear_13306_36776" x1="56.571" y1="50.1573" x2="94.0218" y2="50.1573" gradientUnits="userSpaceOnUse">
<stop stop-color="#989FB0"/>
<stop offset="1" stop-color="#AAB2C5"/>
</linearGradient>
<linearGradient id="paint10_linear_13306_36776" x1="46.4987" y1="50.1572" x2="52.2604" y2="50.1572" gradientUnits="userSpaceOnUse">
<stop stop-color="#989FB0"/>
<stop offset="1" stop-color="#AAB2C5"/>
</linearGradient>
<linearGradient id="paint11_linear_13306_36776" x1="108.464" y1="91.6626" x2="112.596" y2="92.5673" gradientUnits="userSpaceOnUse">
<stop stop-color="#B0B8C7"/>
<stop offset="1" stop-color="#757982"/>
</linearGradient>
<linearGradient id="paint12_linear_13306_36776" x1="116.246" y1="100.88" x2="120.979" y2="96.1465" gradientUnits="userSpaceOnUse">
<stop stop-color="#989FB0"/>
<stop offset="1" stop-color="#AAB2C5"/>
</linearGradient>
<linearGradient id="paint13_linear_13306_36776" x1="76.0102" y1="74.6207" x2="116.342" y2="74.6207" gradientUnits="userSpaceOnUse">
<stop stop-color="#989FB0"/>
<stop offset="1" stop-color="#AAB2C5"/>
</linearGradient>
</defs>
</svg>
