<svg width="355" height="316" viewBox="0 0 355 316" fill="none" xmlns="http://www.w3.org/2000/svg">
<path d="M43.8355 140.747C49.1037 155.821 55.1955 170.297 64.4255 183.347C79.1367 204.164 104.008 215.056 128.205 223.072C152.218 231.032 176.806 237.137 201.754 241.333C219.639 244.343 231.219 245.082 248.614 239.913C273.783 232.38 299.854 211.513 308.779 186.812C314.459 171.015 319.394 152.895 313.749 137.077C308.105 121.258 290.731 108.421 273.954 107.555C259.15 106.752 245.66 115.074 232.951 122.621C220.242 130.168 205.822 137.531 191.324 134.634C175.42 131.46 164.457 116.927 157.088 102.478C149.718 88.0297 144.017 72.1044 132.124 61.0781C119.465 49.3418 97.3908 42.1779 80.8762 47.1763C64.3616 52.1747 48.9049 66.9853 42.6001 87.8309C42.6001 87.8309 35.3155 116.345 43.8355 140.747Z" fill="#EBEBEB"/>
<path d="M317.874 304.53C317.874 304.629 253.009 304.715 173.034 304.715C93.0599 304.715 28.1943 304.629 28.1943 304.53C28.1943 304.431 93.0102 304.381 173.013 304.381C253.016 304.381 317.874 304.423 317.874 304.53Z" fill="#263238"/>
<path d="M298.101 291.294C297.618 289.398 298.867 287.51 300.266 286.146C301.665 284.783 303.333 283.562 304.065 281.751C305.25 278.819 303.702 275.006 305.712 272.571C306.897 271.151 309.006 270.661 310.057 269.128C310.546 268.28 310.871 267.348 311.015 266.38C312.153 261.504 314.581 257.024 318.045 253.408C318.252 257.759 317.283 262.086 315.24 265.933C314.423 267.473 313.422 268.964 313.145 270.683C312.691 273.473 314.239 276.363 313.536 279.096C312.734 282.234 309.198 284.307 309.013 287.538C308.857 290.264 311.221 292.671 311.03 295.398C310.878 296.557 310.455 297.664 309.794 298.628C307.664 302.128 304.547 304.528 299.854 304.422L294.096 304.592L298.101 291.294Z" fill="#16A75C"/>
<g opacity="0.3">
<path d="M298.101 291.294C297.618 289.398 298.867 287.51 300.266 286.146C301.665 284.783 303.333 283.562 304.065 281.751C305.25 278.819 303.702 275.006 305.712 272.571C306.897 271.151 309.006 270.661 310.057 269.128C310.546 268.28 310.871 267.348 311.015 266.38C312.153 261.504 314.581 257.024 318.045 253.408C318.252 257.759 317.283 262.086 315.24 265.933C314.423 267.473 313.422 268.964 313.145 270.683C312.691 273.473 314.239 276.363 313.536 279.096C312.734 282.234 309.198 284.307 309.013 287.538C308.857 290.264 311.221 292.671 311.03 295.398C310.878 296.557 310.455 297.664 309.794 298.628C307.664 302.128 304.547 304.528 299.854 304.422L294.096 304.592L298.101 291.294Z" fill="black"/>
</g>
<path d="M292.932 304.734C292.405 304.809 291.87 304.795 291.348 304.692C290.711 304.594 290.086 304.433 289.481 304.209C288.646 303.914 287.866 303.482 287.174 302.931C286.759 302.591 286.435 302.155 286.229 301.66C286.059 301.101 285.973 300.519 285.974 299.935C285.965 299.313 285.922 298.692 285.846 298.075C285.73 297.417 285.489 296.788 285.136 296.222C284.461 295.029 283.34 293.893 283.006 292.267C282.672 290.641 282.914 288.951 283.19 287.226C283.467 285.501 283.737 283.619 283.091 281.816C282.445 280.012 281.231 278.386 280.613 276.349C279.995 274.311 280.301 272.089 280.18 269.959C280.149 268.856 279.908 267.769 279.47 266.757C279.009 265.734 278.37 264.769 277.873 263.696C276.857 261.524 276.694 259.06 276.453 256.653C276.318 255.439 276.19 254.211 276.055 252.975C275.978 251.729 275.771 250.494 275.437 249.291C275.055 248.082 274.603 246.896 274.081 245.741C273.813 245.139 273.594 244.517 273.428 243.88C273.331 243.224 273.272 242.563 273.25 241.899C273.196 240.569 273.255 239.237 273.428 237.916C273.591 236.589 273.84 235.268 273.989 233.94V233.713V233.443L274.223 233.564C275.44 234.192 276.495 235.093 277.305 236.198C278.102 237.284 278.738 238.48 279.193 239.748C280.137 242.226 280.471 244.818 280.94 247.288C281.307 249.708 282.103 252.042 283.29 254.182C283.915 255.212 284.667 256.149 285.335 257.15C286.044 258.128 286.529 259.251 286.755 260.438C287.081 262.88 285.725 265.01 285.995 267.168C286.119 268.228 286.473 269.248 287.032 270.157C287.543 271.08 288.153 271.94 288.736 272.799C289.323 273.639 289.834 274.53 290.262 275.461C290.67 276.374 290.91 277.353 290.972 278.351C291.107 280.289 290.816 282.128 290.972 283.868C291.132 285.526 291.614 287.137 292.392 288.61C293.102 290.03 293.848 291.315 294.522 292.558C294.842 293.183 295.14 293.786 295.381 294.397C295.607 294.987 295.774 295.598 295.878 296.222C296.034 297.309 296.034 298.414 295.878 299.502C295.716 301.022 295.139 302.469 294.21 303.684C294.066 303.863 293.909 304.031 293.741 304.188C293.625 304.308 293.497 304.415 293.358 304.507C293.145 304.663 293.031 304.734 293.031 304.734C293.442 304.41 293.818 304.044 294.153 303.641C295.044 302.424 295.591 300.989 295.736 299.488C295.872 298.411 295.853 297.321 295.679 296.25C295.579 295.64 295.412 295.042 295.182 294.468C294.926 293.85 294.637 293.245 294.316 292.657C293.67 291.422 292.896 290.137 292.186 288.71C291.403 287.211 290.92 285.573 290.766 283.889C290.624 282.114 290.901 280.268 290.766 278.372C290.711 277.409 290.482 276.464 290.092 275.582C289.666 274.668 289.16 273.794 288.579 272.969C288.004 272.117 287.387 271.251 286.854 270.314C286.274 269.364 285.906 268.301 285.775 267.197C285.505 264.896 286.854 262.752 286.52 260.487C286.304 259.351 285.839 258.277 285.157 257.342C284.504 256.362 283.737 255.418 283.098 254.367C281.883 252.163 281.077 249.758 280.72 247.267C280.244 244.775 279.91 242.212 278.98 239.784C278.534 238.56 277.917 237.406 277.148 236.354C276.369 235.299 275.359 234.437 274.195 233.834L274.457 233.685V233.919C274.301 235.268 274.053 236.582 273.889 237.895C273.723 239.194 273.666 240.505 273.719 241.814C273.74 242.458 273.794 243.1 273.882 243.738C274.042 244.355 274.256 244.956 274.521 245.535C275.046 246.712 275.501 247.918 275.885 249.149C276.227 250.37 276.436 251.624 276.509 252.89C276.644 254.133 276.772 255.361 276.9 256.575C277.163 258.996 277.326 261.41 278.32 263.512C278.803 264.556 279.442 265.521 279.91 266.579C280.374 267.625 280.63 268.751 280.663 269.895C280.776 272.117 280.478 274.283 281.068 276.285C281.657 278.287 282.899 279.884 283.524 281.745C284.149 283.605 283.9 285.572 283.616 287.29C283.332 289.008 283.041 290.705 283.403 292.26C283.766 293.815 284.823 294.929 285.498 296.158C285.857 296.75 286.098 297.405 286.208 298.089C286.281 298.716 286.317 299.346 286.314 299.977C286.315 300.542 286.396 301.104 286.556 301.646C286.746 302.118 287.048 302.537 287.436 302.867C288.111 303.414 288.871 303.846 289.687 304.145C290.28 304.379 290.897 304.55 291.526 304.656C291.912 304.73 292.304 304.771 292.697 304.777L292.932 304.734Z" fill="#263238"/>
<path d="M275.132 236.83C275.156 236.887 275.173 236.947 275.182 237.008C275.217 237.142 275.26 237.313 275.309 237.526C275.423 237.98 275.551 238.662 275.764 239.521C275.977 240.38 276.474 241.339 276.942 242.531C277.411 243.724 277.858 245.08 278.284 246.621C278.71 248.162 279.094 249.866 279.491 251.69C279.832 253.644 280.441 255.541 281.302 257.328C281.77 258.265 282.296 259.209 282.722 260.246C283.129 261.311 283.4 262.422 283.531 263.554C283.814 265.898 284.216 268.225 284.738 270.527C285.86 275.248 286.939 279.757 287.912 283.839C288.885 287.922 289.822 291.599 290.582 294.702C291.341 297.805 291.923 300.276 292.342 302.036C292.541 302.881 292.697 303.549 292.804 304.032L292.917 304.55C292.924 304.611 292.924 304.673 292.917 304.734C292.888 304.681 292.867 304.624 292.854 304.564L292.704 304.046C292.577 303.57 292.399 302.91 292.179 302.072L290.298 294.766L287.55 283.924L284.341 270.605C283.815 268.295 283.414 265.958 283.141 263.604C283.017 262.501 282.754 261.418 282.36 260.381C281.962 259.365 281.444 258.421 280.94 257.477C280.075 255.665 279.468 253.741 279.136 251.761C278.753 249.922 278.391 248.211 277.979 246.692C277.567 245.173 277.127 243.788 276.694 242.602C276.261 241.417 275.771 240.437 275.565 239.556C275.359 238.676 275.267 238.002 275.182 237.54C275.146 237.327 275.118 237.15 275.089 237.015C275.095 236.952 275.11 236.889 275.132 236.83Z" fill="#263238"/>
<path d="M291.916 304.749C288.168 302.491 287.124 295.704 288.721 291.628C290.319 287.553 293.074 283.818 293.521 279.487C293.869 276.15 292.811 272.707 293.592 269.441C294.664 265.032 298.995 261.631 298.974 257.101C298.974 254.559 297.554 252.131 297.653 249.61C297.809 246.493 300.216 244.03 301.714 241.296C304.015 237.1 304.192 232.13 304.995 227.416C305.797 222.701 307.622 217.667 311.811 215.346C312.407 219.35 313.444 222.098 313.082 227.522C312.954 229.468 310.668 233.202 310.341 237.462C310.142 240.018 310 242.567 309.83 245.123C309.659 247.679 309.489 250.136 308.58 252.457C307.87 254.232 306.784 255.844 306.266 257.683C305.293 261.134 306.521 264.889 305.733 268.39C305.066 271.358 302.992 273.899 302.559 276.91C301.942 281.17 304.689 285.55 303.234 289.576C302.524 291.578 300.87 293.176 300.394 295.256C300.018 296.861 300.394 298.558 300.067 300.169C299.521 302.761 294.558 304.749 291.916 304.579" fill="#16A75C"/>
<path d="M310.753 219.344C310.761 219.417 310.761 219.491 310.753 219.564C310.753 219.734 310.696 219.954 310.66 220.224C310.575 220.799 310.469 221.644 310.27 222.745C310.071 223.845 309.475 225.088 309.013 226.586C308.552 228.084 308.041 229.795 307.593 231.726C307.146 233.657 306.784 235.787 306.393 238.081C306.074 240.553 305.412 242.969 304.427 245.259C303.887 246.459 303.291 247.659 302.836 248.937C302.397 250.251 302.126 251.615 302.027 252.998C301.798 255.944 301.412 258.876 300.87 261.78C299.684 267.709 298.555 273.353 297.533 278.487C296.51 283.62 295.474 288.214 294.657 292.097C293.841 295.981 293.159 299.077 292.683 301.264C292.449 302.321 292.264 303.159 292.129 303.749C292.066 304.018 292.016 304.231 291.98 304.395C291.968 304.47 291.947 304.544 291.916 304.615C291.905 304.539 291.905 304.463 291.916 304.388C291.916 304.224 291.98 304.004 292.03 303.734C292.144 303.138 292.307 302.314 292.513 301.235C292.96 299.041 293.592 295.903 294.373 292.041C295.154 288.178 296.12 283.521 297.17 278.416C298.221 273.311 299.3 267.638 300.479 261.717C301.017 258.833 301.403 255.922 301.636 252.998C301.739 251.587 302.023 250.196 302.481 248.858C302.943 247.552 303.553 246.345 304.086 245.159C305.069 242.895 305.733 240.506 306.06 238.059C306.464 235.773 306.848 233.636 307.309 231.669C307.711 229.93 308.201 228.211 308.779 226.522C309.262 225.017 309.858 223.788 310.085 222.716C310.313 221.644 310.433 220.785 310.547 220.21C310.597 219.94 310.639 219.727 310.668 219.564C310.689 219.488 310.718 219.414 310.753 219.344Z" fill="#263238"/>
<path d="M162.1 59.381C162.609 59.5387 163.088 59.7785 163.52 60.091C164.744 60.9452 165.631 62.2012 166.026 63.641C166.308 64.6245 166.355 65.6609 166.161 66.6656C165.936 67.8261 165.404 68.905 164.62 69.7896C164.2 70.2685 163.709 70.6804 163.165 71.0108C162.601 71.3656 161.985 71.6291 161.34 71.7918C159.973 72.149 158.528 72.0559 157.218 71.5264C155.908 70.9969 154.804 70.0592 154.07 68.8524C153.716 68.2894 153.455 67.6734 153.296 67.0277C153.133 66.412 153.064 65.7754 153.09 65.1391C153.128 64.0362 153.445 62.9609 154.011 62.0135C154.577 61.0662 155.374 60.2778 156.327 59.7218C157.611 58.9666 159.116 58.6805 160.587 58.9124C161.116 58.9854 161.629 59.1436 162.107 59.381C161.599 59.2461 161.085 59.1371 160.566 59.0544C159.141 58.8894 157.702 59.2042 156.476 59.949C155.578 60.4936 154.829 61.2544 154.3 62.1622C153.77 63.0699 153.476 64.0958 153.445 65.1462C153.418 65.7498 153.487 66.3538 153.651 66.9354C153.792 67.5452 154.032 68.1279 154.361 68.6607C155.062 69.7916 156.106 70.6692 157.341 71.1659C158.576 71.6626 159.937 71.7526 161.226 71.4226C162.428 71.1168 163.513 70.4622 164.343 69.5411C165.093 68.7054 165.61 67.6866 165.841 66.5875C166.038 65.628 166.006 64.6358 165.749 63.6907C165.382 62.3041 164.562 61.0797 163.42 60.2117C162.994 59.9128 162.554 59.6355 162.1 59.381Z" fill="#263238"/>
<path d="M168.312 53.4092C168.303 53.3337 168.303 53.2574 168.312 53.182C168.312 53.0116 168.369 52.7915 168.405 52.472C168.495 51.8472 168.629 50.9526 168.809 49.7882L168.845 49.8521L163.3 47.6724H163.413L161.361 50.6686L161.326 50.7183H161.255C159.963 50.5678 158.658 50.5869 157.371 50.7751H157.3L157.258 50.7183L155.128 47.786L155.284 47.8286L149.739 50.2L149.824 50.0367C150.03 51.1443 150.257 52.3584 150.484 53.5867V53.679L150.406 53.7358C149.385 54.5341 148.475 55.4653 147.701 56.5048L147.68 56.59H147.58L144.03 56.022L144.208 55.9155L141.978 61.4961L141.915 61.2902L144.904 63.3492L144.989 63.406V63.5125C144.833 64.7986 144.848 66.0996 145.031 67.382V67.4885L144.939 67.5524L142 69.6824L142.064 69.4623L144.421 74.9861L144.222 74.8796L147.772 74.2264H147.879L147.95 74.3187C148.743 75.3374 149.669 76.2448 150.704 77.0167C150.512 76.6024 150.165 76.2796 149.738 76.1169C149.311 75.9543 148.838 75.9647 148.419 76.1458C147.999 76.327 147.667 76.6647 147.493 77.087C147.319 77.5093 147.316 77.9829 147.486 78.4071C147.655 78.8312 147.984 79.1724 148.401 79.3581C148.819 79.5437 149.292 79.5592 149.721 79.4012C150.149 79.2431 150.499 78.9241 150.696 78.5119C150.893 78.0997 150.922 77.6269 150.775 77.1942V77.18V77.2368V77.3504L150.74 77.5776L150.669 78.0249L150.52 78.9266C150.427 79.523 150.328 80.1194 150.236 80.7087L150.122 80.5099L155.696 82.7535L155.476 82.8174L157.542 79.8283L157.598 79.7431H157.712C158.998 79.8995 160.299 79.8851 161.582 79.7005H161.688L161.752 79.7857L163.882 82.7322L163.669 82.6683L169.193 80.3182L169.093 80.5099C168.873 79.2958 168.66 78.103 168.447 76.9599V76.8605L168.525 76.8037C169.547 76.0069 170.459 75.0782 171.238 74.0418L171.294 73.9637H171.394L174.944 74.5459L174.78 74.6382C175.569 72.6786 176.314 70.8326 177.031 69.0718L177.081 69.2422L174.099 67.169L174.035 67.1264V67.0483C174.206 65.7594 174.206 64.4535 174.035 63.1646V63.0865L174.092 63.0439L177.045 60.9139V61.0488C176.137 58.9188 175.37 57.0728 174.709 55.5108L174.802 55.5605L171.252 56.1924C170.651 55.4199 169.979 54.7067 169.242 54.0624L168.689 53.5938C168.622 53.5475 168.561 53.4952 168.504 53.4376C168.574 53.4733 168.641 53.5161 168.703 53.5654C168.838 53.6648 169.029 53.8068 169.278 54.0198C170.04 54.6545 170.733 55.3685 171.344 56.1498H171.287L174.837 55.4398H174.901V55.5037L177.28 61.0204V61.0985L177.209 61.1482L174.276 63.2782L174.319 63.1646C174.517 64.4718 174.536 65.7998 174.376 67.1122L174.319 66.9844L177.308 69.0434L177.4 69.1073L177.365 69.2138C176.655 70.9746 175.945 72.8277 175.135 74.7873L175.086 74.9009H174.965L171.38 74.3329L171.536 74.269C170.741 75.333 169.81 76.2879 168.767 77.109L168.831 76.9457C169.044 78.1172 169.264 79.3029 169.484 80.4957V80.6306L169.356 80.6803L163.839 83.0446L163.704 83.1014L163.626 82.9878L161.496 80.0484L161.667 80.1194C160.354 80.3111 159.022 80.3254 157.705 80.162L157.875 80.091L155.809 83.073L155.731 83.1937L155.596 83.1369L150.016 80.9004L149.881 80.8507V80.7016C149.98 80.1052 150.072 79.5159 150.172 78.9124L150.314 78.0178L150.385 77.5634L150.42 77.3433V77.2297V77.1303C150.569 77.4853 150.463 77.2297 150.498 77.3078C149.433 76.515 148.478 75.5838 147.658 74.5388L147.836 74.6027L144.286 75.2559H144.137L144.08 75.121L141.73 69.5901L141.673 69.4623L141.787 69.3771L144.733 67.2471L144.662 67.4175C144.471 66.1047 144.457 64.7722 144.62 63.4557L144.691 63.6261L141.673 61.56L141.56 61.4819L141.616 61.3541C142.39 59.4158 143.157 57.5272 143.86 55.7806L143.91 55.6599H144.037L147.587 56.2421L147.431 56.2989C148.226 55.2329 149.16 54.2778 150.207 53.4589L150.151 53.608C149.923 52.3584 149.703 51.1372 149.504 50.058V49.9444L149.611 49.9018L155.142 47.5588L155.241 47.5162L155.298 47.6014L157.428 50.5479L157.307 50.4982C158.617 50.3211 159.945 50.3211 161.255 50.4982L161.156 50.5408L163.229 47.5659L163.271 47.502H163.342L168.902 49.774H168.944V49.8166C168.745 50.9668 168.596 51.8543 168.49 52.472C168.433 52.7607 168.39 52.9974 168.362 53.182C168.351 53.2587 168.334 53.3346 168.312 53.4092Z" fill="#263238"/>
<path fill-rule="evenodd" clip-rule="evenodd" d="M250.963 193.259C252.296 194.25 253.49 195.415 254.513 196.724L259.029 195.9L262.011 202.886L258.291 205.577C258.528 207.224 258.547 208.895 258.347 210.547L262.117 213.16L259.277 220.21L254.748 219.5C253.758 220.835 252.593 222.029 251.283 223.05L252.106 227.573L245.12 230.555L242.429 226.835C240.782 227.073 239.111 227.09 237.459 226.884L234.846 230.662L227.796 227.822L228.506 223.292C227.172 222.302 225.978 221.137 224.956 219.827L220.483 220.601L217.501 213.615L221.221 210.924C220.983 209.277 220.967 207.605 221.172 205.954L217.395 203.348L220.235 196.298L224.764 197.008C225.755 195.675 226.921 194.481 228.229 193.458L227.406 188.942L234.392 185.96L237.083 189.68C238.73 189.44 240.401 189.421 242.053 189.624L244.659 185.854L251.709 188.694L250.999 193.23L250.963 193.259ZM243.111 200.813C241.615 200.212 239.974 200.067 238.396 200.398C236.819 200.729 235.374 201.521 234.246 202.673C233.118 203.825 232.357 205.285 232.059 206.87C231.762 208.454 231.94 210.091 232.573 211.574C233.206 213.057 234.264 214.319 235.614 215.2C236.964 216.082 238.545 216.543 240.157 216.526C241.769 216.509 243.34 216.014 244.671 215.104C246.001 214.194 247.033 212.91 247.633 211.414C248.033 210.421 248.233 209.359 248.222 208.288C248.212 207.218 247.99 206.16 247.57 205.176C247.15 204.191 246.54 203.299 245.774 202.551C245.009 201.802 244.104 201.212 243.111 200.813Z" fill="#FAFAFA"/>
<path d="M243.111 200.813C243.752 201.025 244.355 201.337 244.9 201.736C246.43 202.81 247.541 204.38 248.045 206.181C248.398 207.421 248.454 208.727 248.208 209.993C247.922 211.452 247.25 212.808 246.263 213.92C245.734 214.523 245.117 215.043 244.431 215.46C243.723 215.905 242.949 216.236 242.138 216.44C240.425 216.891 238.612 216.78 236.967 216.123C235.322 215.466 233.931 214.298 233 212.791C232.555 212.08 232.224 211.304 232.02 210.49C231.814 209.718 231.727 208.918 231.765 208.119C231.818 206.633 232.269 205.189 233.071 203.937C233.928 202.611 235.147 201.559 236.585 200.907C238.023 200.255 239.618 200.03 241.179 200.259C241.85 200.347 242.502 200.541 243.111 200.834C242.468 200.655 241.816 200.51 241.158 200.401C239.349 200.184 237.519 200.579 235.961 201.523C234.818 202.214 233.866 203.18 233.193 204.334C232.519 205.487 232.146 206.791 232.106 208.126C232.054 209.703 232.472 211.26 233.306 212.599C234.199 214.038 235.528 215.155 237.101 215.786C238.673 216.417 240.405 216.529 242.046 216.106C243.573 215.716 244.951 214.884 246.007 213.714C246.91 212.721 247.546 211.516 247.858 210.212C248.169 208.907 248.146 207.545 247.79 206.252C247.32 204.492 246.272 202.942 244.815 201.85C244.265 201.475 243.696 201.129 243.111 200.813Z" fill="#263238"/>
<path d="M250.963 193.259C250.957 193.162 250.957 193.064 250.963 192.967C250.963 192.762 251.034 192.478 251.084 192.108C251.205 191.327 251.375 190.191 251.602 188.715V188.778L244.538 185.981L244.651 185.946L242.11 189.73L242.074 189.787H242.01C240.375 189.589 238.72 189.61 237.09 189.851H237.012L236.969 189.794L234.271 186.081L234.427 186.123L227.448 189.119L227.533 188.956C227.789 190.376 228.073 191.895 228.364 193.472V193.564L228.286 193.621C226.991 194.633 225.837 195.815 224.857 197.135L224.8 197.213H224.7L220.171 196.503L220.348 196.404C219.461 198.619 218.509 201.005 217.508 203.454L217.451 203.248L221.229 205.854L221.314 205.911V206.017C221.117 207.648 221.136 209.298 221.371 210.923V211.03L221.285 211.094L217.565 213.785L217.629 213.572L220.611 220.558L220.405 220.444L224.928 219.621H225.034L225.105 219.713C226.116 221.005 227.293 222.158 228.605 223.142L228.698 223.213V223.32C228.456 224.839 228.22 226.349 227.988 227.85L227.874 227.651L234.924 230.491L234.704 230.555C235.585 229.284 236.451 228.027 237.317 226.785L237.374 226.692H237.488C239.116 226.893 240.763 226.876 242.387 226.643H242.5L242.564 226.728L245.248 230.448L245.035 230.392L252.028 227.417L251.929 227.601C251.645 226.068 251.375 224.562 251.105 223.086V222.986L251.191 222.922C252.487 221.914 253.643 220.737 254.627 219.422L254.684 219.344H254.783L259.313 220.054L259.143 220.153L261.983 213.103L262.032 213.273L258.255 210.661L258.191 210.611V210.533C258.398 208.898 258.384 207.243 258.149 205.613V205.542L258.212 205.499L261.94 202.815L261.904 202.95C260.754 200.238 259.774 197.93 258.944 195.949L259.036 195.999L254.513 196.802C253.752 195.818 252.898 194.91 251.964 194.089C251.652 193.819 251.418 193.628 251.254 193.493C251.175 193.433 251.1 193.369 251.027 193.301L251.276 193.472C251.439 193.592 251.688 193.777 251.986 194.047C252.947 194.846 253.821 195.746 254.591 196.731H254.535L259.05 195.878H259.114V195.942C259.959 197.916 260.953 200.202 262.117 202.922L262.153 203L262.082 203.049L258.347 205.691L258.397 205.57C258.638 207.217 258.66 208.888 258.461 210.54L258.404 210.412L262.188 213.018L262.281 213.082L262.238 213.181C261.344 215.411 260.406 217.754 259.398 220.239L259.348 220.352H259.228L254.698 219.642L254.847 219.585C253.847 220.92 252.672 222.113 251.354 223.135L251.418 222.972C251.688 224.458 251.964 225.964 252.248 227.488V227.623L252.128 227.679L245.141 230.661L245.014 230.718L244.928 230.605C244.041 229.383 243.146 228.148 242.237 226.884L242.408 226.962C240.749 227.201 239.066 227.221 237.402 227.019L237.58 226.941C236.714 228.183 235.847 229.447 234.967 230.718L234.889 230.839L234.747 230.782L227.697 227.942L227.562 227.892V227.743C227.803 226.245 228.052 224.733 228.272 223.213L228.343 223.391C227.009 222.39 225.816 221.215 224.793 219.898L224.97 219.962L220.455 220.785H220.306L220.249 220.65C219.226 218.243 218.218 215.872 217.274 213.664L217.217 213.529L217.331 213.444L221.058 210.753L220.98 210.923C220.747 209.276 220.73 207.605 220.93 205.953L221.001 206.124C219.695 205.215 218.41 204.32 217.231 203.511L217.118 203.433L217.167 203.305C218.154 200.856 219.12 198.47 220.007 196.255L220.057 196.134H220.185L224.722 196.844L224.566 196.908C225.569 195.574 226.746 194.38 228.066 193.358L228.009 193.507C227.725 191.931 227.448 190.39 227.193 188.992V188.871L227.299 188.828L234.293 185.86L234.385 185.818L234.449 185.903L237.133 189.631L237.019 189.581C238.667 189.348 240.338 189.334 241.989 189.538L241.89 189.588L244.509 185.818L244.552 185.754H244.623L251.659 188.594H251.702V188.644C251.453 190.106 251.262 191.228 251.134 192.002C251.063 192.378 251.013 192.662 250.978 192.868L250.963 193.259Z" fill="#263238"/>
<path d="M216.848 304.529L138.095 304.479C133.549 304.477 129.19 302.671 125.975 299.457C122.76 296.244 120.952 291.885 120.949 287.34L120.984 89.8958C120.984 87.642 121.428 85.4102 122.291 83.3281C123.154 81.246 124.419 79.3544 126.013 77.7613C127.608 76.1683 129.5 74.9051 131.583 74.0439C133.666 73.1826 135.898 72.7403 138.152 72.7422L216.912 72.7848C219.166 72.7867 221.396 73.2324 223.477 74.0966C225.558 74.9609 227.448 76.2266 229.04 77.8215C230.632 79.4164 231.894 81.3093 232.753 83.392C233.613 85.4747 234.055 87.7065 234.052 89.9597V287.411C234.046 289.664 233.597 291.895 232.729 293.975C231.862 296.054 230.593 297.943 228.995 299.533C227.398 301.122 225.503 302.382 223.419 303.239C221.335 304.096 219.102 304.534 216.848 304.529Z" fill="#263238"/>
<path d="M216.827 79.7502H201.555C200.55 79.7725 199.596 80.1926 198.901 80.9181C198.206 81.6436 197.828 82.6153 197.849 83.6197V86.41C197.86 86.9085 197.773 87.4043 197.592 87.8691C197.412 88.3339 197.141 88.7585 196.796 89.1186C196.451 89.4787 196.039 89.7672 195.582 89.9676C195.125 90.168 194.634 90.2764 194.135 90.2866H164.372C163.366 90.2605 162.412 89.8373 161.718 89.1096C161.023 88.3818 160.645 87.4086 160.666 86.4029V83.57C160.687 82.5649 160.309 81.5925 159.614 80.8658C158.919 80.1392 157.965 79.7176 156.96 79.6934H151.592H138.223C135.036 79.6934 131.98 80.9588 129.726 83.2115C127.472 85.4642 126.204 88.5198 126.202 91.7066L126.167 284.436C126.166 286.013 126.476 287.575 127.079 289.033C127.682 290.49 128.566 291.815 129.681 292.93C130.796 294.046 132.12 294.931 133.577 295.535C135.034 296.138 136.596 296.449 138.173 296.449L216.77 296.499C219.955 296.499 223.01 295.236 225.265 292.986C227.519 290.737 228.79 287.685 228.797 284.5L228.833 91.7776C228.835 88.5908 227.571 85.5337 225.32 83.2784C223.068 81.023 220.014 79.7539 216.827 79.7502Z" fill="white"/>
<path opacity="0.1" d="M208.98 118.784L186.005 118.972C183.888 118.99 182.185 120.72 182.203 122.838L182.391 145.813C182.409 147.93 184.139 149.632 186.257 149.615L209.231 149.427C211.349 149.409 213.051 147.679 213.034 145.561L212.845 122.586C212.828 120.469 211.097 118.767 208.98 118.784Z" fill="#16A75C"/>
<path opacity="0.1" d="M208.101 134.15C208.024 133.313 207.886 132.483 207.69 131.665C207.084 129.451 205.751 127.505 203.905 126.142C202.648 125.205 201.189 124.575 199.645 124.303C197.867 123.999 196.04 124.17 194.349 124.8C192.483 125.497 190.867 126.733 189.705 128.35C188.451 130.085 187.784 132.175 187.802 134.316C187.82 136.457 188.522 138.536 189.805 140.249C190.993 141.846 192.629 143.055 194.505 143.721C196.205 144.328 198.036 144.47 199.809 144.133C201.359 143.84 202.819 143.186 204.069 142.223C205.89 140.826 207.19 138.859 207.761 136.635C207.942 135.817 208.065 134.986 208.13 134.15C208.137 134.205 208.137 134.26 208.13 134.314V134.804C208.132 135.07 208.113 135.336 208.073 135.599C208.043 135.961 207.981 136.319 207.888 136.671C207.674 137.647 207.307 138.584 206.802 139.447C205.599 141.541 203.7 143.148 201.436 143.989C199.171 144.829 196.684 144.85 194.405 144.048C193.455 143.712 192.562 143.234 191.757 142.628C190.901 142.021 190.148 141.28 189.528 140.434C188.194 138.661 187.465 136.506 187.447 134.287C187.429 132.069 188.124 129.903 189.428 128.108C190.638 126.439 192.316 125.166 194.249 124.452C195.994 123.808 197.879 123.644 199.709 123.976C201.156 124.244 202.529 124.817 203.738 125.657C204.946 126.497 205.961 127.584 206.717 128.847C207.235 129.7 207.616 130.63 207.846 131.601C207.944 131.952 208.013 132.311 208.052 132.674C208.092 132.934 208.116 133.198 208.123 133.462C208.123 133.66 208.123 133.824 208.123 133.952C208.126 134.019 208.119 134.086 208.101 134.15Z" fill="white"/>
<path opacity="0.1" d="M208.158 133.455C208.158 133.554 203.493 133.675 197.735 133.725C191.977 133.774 187.319 133.725 187.319 133.625C187.319 133.526 191.977 133.405 197.735 133.355C203.493 133.306 208.151 133.355 208.158 133.455Z" fill="white"/>
<path opacity="0.1" d="M198.31 144.417C198.353 144.27 198.415 144.129 198.495 143.998L199.077 142.826C199.408 142.222 199.702 141.599 199.957 140.959C200.328 140.125 200.646 139.269 200.909 138.396C201.683 136.151 201.957 133.764 201.711 131.402C201.522 130.019 201.095 128.678 200.447 127.441C199.743 126.119 198.745 124.978 197.529 124.104H197.742C197.586 124.231 197.408 124.388 197.245 124.544C195.01 126.547 193.418 129.169 192.673 132.077C192.143 134.483 192.485 136.999 193.638 139.177C193.851 139.645 194.135 140.057 194.348 140.469C194.561 140.881 194.86 141.222 195.115 141.548L195.825 142.45C196.059 142.713 196.28 142.947 196.485 143.16C196.876 143.6 197.195 143.87 197.437 144.118C197.555 144.225 197.662 144.344 197.756 144.473C197.622 144.385 197.496 144.286 197.38 144.175C197.153 143.969 196.791 143.685 196.379 143.259L195.669 142.549L194.909 141.655C194.639 141.335 194.391 140.945 194.107 140.576C193.823 140.206 193.567 139.752 193.34 139.269C192.129 137.055 191.752 134.481 192.275 132.013C193.014 129.027 194.634 126.333 196.926 124.281C197.103 124.118 197.274 123.962 197.451 123.82L197.558 123.734L197.664 123.805C198.928 124.72 199.966 125.912 200.696 127.291C201.362 128.568 201.797 129.953 201.981 131.381C202.219 133.785 201.914 136.212 201.086 138.481C200.81 139.36 200.473 140.219 200.078 141.051C199.805 141.688 199.492 142.307 199.141 142.904C198.871 143.366 198.658 143.749 198.495 144.04C198.442 144.17 198.38 144.296 198.31 144.417Z" fill="white"/>
<path opacity="0.1" d="M168.98 272.594C169.371 272.562 169.756 272.489 170.13 272.374C170.656 272.191 171.136 271.896 171.536 271.51C171.937 271.124 172.25 270.656 172.452 270.137C172.59 269.783 172.671 269.409 172.694 269.03C172.694 268.632 172.694 268.199 172.694 267.752C172.694 266.857 172.694 265.892 172.658 264.848C172.658 262.76 172.601 260.389 172.573 257.748C172.544 255.107 172.509 252.245 172.481 249.164C172.481 248.39 172.481 247.609 172.481 246.814C172.543 246.024 172.458 245.23 172.232 244.471C171.945 243.717 171.419 243.078 170.734 242.653C170.024 242.224 169.196 242.033 168.37 242.107L145.799 242.305C144.839 242.315 143.922 242.7 143.243 243.377C142.57 244.045 142.187 244.95 142.178 245.898C142.178 247.843 142.178 249.76 142.213 251.649C142.213 255.426 142.27 259.068 142.291 262.54C142.291 264.273 142.303 265.962 142.327 267.61C142.279 268.402 142.334 269.196 142.49 269.974C142.699 270.69 143.122 271.325 143.702 271.795C144.282 272.264 144.991 272.546 145.735 272.601C146.445 272.601 147.205 272.601 147.915 272.601H152.033L164.458 272.558H167.837L164.465 272.622L152.033 272.786L147.915 272.828C147.205 272.828 146.495 272.864 145.714 272.828C144.923 272.767 144.168 272.476 143.541 271.99C142.894 271.481 142.421 270.784 142.185 269.995C142.074 269.634 142.012 269.259 142 268.881C142 268.476 142 268.071 142 267.659C142 266.012 141.984 264.322 141.951 262.59C141.951 259.118 141.887 255.49 141.851 251.706C141.851 249.81 141.851 247.893 141.809 245.94C141.823 244.891 142.249 243.89 142.993 243.151C143.738 242.411 144.742 241.993 145.792 241.986L168.363 241.815C169.255 241.741 170.147 241.952 170.911 242.419C171.656 242.884 172.225 243.583 172.53 244.407C172.686 244.803 172.772 245.224 172.786 245.649C172.786 246.061 172.786 246.459 172.786 246.856C172.786 247.652 172.786 248.44 172.786 249.214C172.786 252.295 172.786 255.17 172.836 257.79C172.885 260.41 172.836 262.76 172.836 264.89C172.836 265.934 172.836 266.9 172.836 267.794C172.836 268.242 172.836 268.66 172.836 269.079C172.806 269.474 172.718 269.862 172.573 270.23C172.36 270.763 172.03 271.242 171.609 271.632C171.188 272.023 170.685 272.315 170.138 272.487C169.762 272.596 169.369 272.632 168.98 272.594Z" fill="#263238"/>
<path opacity="0.1" d="M147.588 250.214C147.699 250.204 147.81 250.204 147.921 250.214H148.937L152.799 250.136L166.53 249.938H166.694V250.108C166.736 254.197 166.779 258.784 166.829 263.598L166.637 263.79H165.316H164.01H161.433H156.463L147.68 263.91H147.524V253.85C147.524 252.706 147.524 251.798 147.524 251.144C147.524 250.86 147.524 250.626 147.524 250.434C147.512 250.359 147.512 250.283 147.524 250.207C147.524 250.207 147.524 250.3 147.524 250.47C147.524 250.64 147.524 250.896 147.524 251.18C147.524 251.84 147.559 252.763 147.588 253.921C147.623 256.292 147.68 259.65 147.744 263.711L147.595 263.562L156.392 263.463L161.362 263.413H163.932H165.245H166.566L166.381 263.598C166.381 258.763 166.318 254.169 166.289 250.108L166.459 250.278H152.842H148.937H147.886L147.588 250.214Z" fill="#263238"/>
<path opacity="0.1" d="M157.13 258.776C157.178 258.705 157.235 258.64 157.301 258.584L157.812 258.08L159.722 256.255C161.383 254.679 163.691 252.507 166.417 249.936L166.531 250.228L157.059 250.32L147.588 250.384L147.694 250.093L154.496 256.298L156.435 258.094L156.953 258.584C157.019 258.641 157.078 258.706 157.13 258.776C157.13 258.776 156.889 258.591 156.42 258.201L154.454 256.49L147.467 250.341L147.141 250.05H147.574L157.052 249.951L166.524 249.887H166.957L166.637 250.178L159.75 256.447L157.805 258.187C157.372 258.584 157.13 258.79 157.13 258.776Z" fill="#263238"/>
<path opacity="0.1" d="M154.482 256.398C153.49 257.74 152.401 259.007 151.223 260.19C150.13 261.46 148.943 262.646 147.673 263.74C148.666 262.398 149.755 261.131 150.932 259.948C152.023 258.676 153.21 257.49 154.482 256.398Z" fill="#263238"/>
<path opacity="0.1" d="M166.637 263.576C164.173 261.336 161.871 258.923 159.75 256.355C161.032 257.422 162.231 258.585 163.336 259.834C164.53 260.996 165.634 262.247 166.637 263.576Z" fill="#263238"/>
<path opacity="0.1" d="M168.917 201.252H145.941C143.823 201.252 142.107 202.968 142.107 205.086V228.062C142.107 230.179 143.823 231.896 145.941 231.896H168.917C171.034 231.896 172.751 230.179 172.751 228.062V205.086C172.751 202.968 171.034 201.252 168.917 201.252Z" fill="#16A75C"/>
<path opacity="0.1" d="M166.36 223.171C166.355 223.081 166.355 222.991 166.36 222.901C166.36 222.709 166.36 222.468 166.36 222.191C166.36 221.516 166.325 220.586 166.296 219.408C166.296 217.001 166.204 213.607 166.14 209.518L166.289 209.667L148.539 209.844L148.717 209.66V211.477C148.717 212.088 148.717 212.691 148.717 213.288C148.717 214.48 148.717 215.652 148.717 216.802C148.717 219.095 148.717 221.282 148.759 223.327L148.589 223.164H161.369H165.018H165.998H166.346C166.242 223.174 166.138 223.174 166.034 223.164H165.089L161.476 223.235L148.596 223.426H148.433V223.263C148.433 221.211 148.39 219.003 148.362 216.731C148.362 215.588 148.362 214.409 148.362 213.217V211.413V209.588L148.546 209.397L166.296 209.283H166.453V219.422C166.453 220.586 166.453 221.509 166.453 222.177C166.453 222.468 166.453 222.702 166.453 222.887C166.44 222.986 166.409 223.083 166.36 223.171Z" fill="#FAFAFA"/>
<path opacity="0.1" d="M154.432 206.945C154.944 206.867 155.462 206.831 155.98 206.839C156.967 206.796 158.373 206.768 160.041 206.732H160.133L160.183 206.818L161.766 209.43L161.93 209.7H161.61H159.935C157.13 209.7 154.588 209.7 152.735 209.7H152.501L152.622 209.509C153.623 207.84 154.333 206.839 154.432 206.924C154.532 207.009 154.262 207.166 153.985 207.634C153.708 208.103 153.275 208.848 152.849 209.636L152.735 209.438C154.588 209.395 157.13 209.352 159.928 209.331H161.61L161.454 209.608L159.899 206.974L160.041 207.059C158.373 207.059 156.974 207.059 155.987 207.024C155.468 207.041 154.947 207.015 154.432 206.945Z" fill="#FAFAFA"/>
<path opacity="0.1" d="M161.085 217.604C161.085 217.604 161.177 217.249 161.213 216.617C161.26 215.719 161.011 214.831 160.503 214.089C160.093 213.488 159.524 213.013 158.859 212.716C158.195 212.42 157.461 212.315 156.739 212.413C156.018 212.51 155.339 212.806 154.776 213.268C154.214 213.73 153.792 214.339 153.556 215.028C153.32 215.716 153.281 216.457 153.443 217.166C153.604 217.876 153.96 218.526 154.47 219.045C154.981 219.564 155.625 219.93 156.332 220.103C157.039 220.276 157.78 220.249 158.472 220.025C159.337 219.757 160.087 219.207 160.602 218.463C160.964 217.937 161.071 217.59 161.106 217.604C161.142 217.618 161.106 217.696 161.042 217.859C160.967 218.109 160.859 218.347 160.723 218.569C160.236 219.377 159.482 219.989 158.593 220.302C158.061 220.483 157.499 220.557 156.938 220.518C156.378 220.48 155.831 220.33 155.329 220.077C154.827 219.825 154.381 219.475 154.016 219.047C153.651 218.62 153.375 218.125 153.204 217.59C152.92 216.726 152.92 215.794 153.204 214.931C153.487 214.067 154.04 213.317 154.78 212.79C155.472 212.313 156.29 212.051 157.13 212.037C157.834 212.03 158.529 212.201 159.149 212.533C159.77 212.866 160.297 213.35 160.68 213.94C161.201 214.73 161.427 215.677 161.319 216.617C161.294 216.859 161.239 217.098 161.156 217.327C161.17 217.526 161.099 217.604 161.085 217.604Z" fill="#FAFAFA"/>
<path opacity="0.1" d="M209.809 160.532L186.834 160.721C184.716 160.738 183.014 162.468 183.031 164.586L183.22 187.561C183.237 189.678 184.968 191.38 187.085 191.363L210.06 191.175C212.177 191.157 213.88 189.427 213.862 187.309L213.674 164.334C213.657 162.217 211.926 160.515 209.809 160.532Z" fill="#455A64"/>
<path opacity="0.1" d="M207.867 175.052C207.79 174.223 207.655 173.399 207.462 172.589C206.861 170.39 205.539 168.457 203.706 167.1C202.363 166.1 200.789 165.455 199.13 165.223C197.471 164.991 195.78 165.18 194.214 165.773C193.306 166.1 192.456 166.567 191.693 167.157C190.887 167.752 190.18 168.471 189.599 169.287C188.349 171.008 187.685 173.084 187.703 175.211C187.72 177.337 188.42 179.402 189.698 181.101C190.291 181.92 191.01 182.639 191.828 183.231C192.598 183.808 193.453 184.26 194.363 184.573C195.941 185.138 197.636 185.298 199.292 185.037C200.948 184.777 202.513 184.105 203.841 183.082C205.648 181.695 206.937 179.743 207.505 177.537C207.687 176.724 207.808 175.898 207.867 175.066C207.877 175.12 207.877 175.176 207.867 175.23V175.72C207.869 175.983 207.85 176.247 207.81 176.508C207.779 176.867 207.717 177.224 207.626 177.573C207.414 178.541 207.053 179.471 206.553 180.328C205.358 182.407 203.472 184.002 201.223 184.836C198.974 185.67 196.504 185.69 194.242 184.893C193.295 184.574 192.404 184.109 191.601 183.515C190.755 182.912 190.01 182.179 189.393 181.343C188.065 179.582 187.338 177.441 187.32 175.236C187.302 173.03 187.994 170.877 189.293 169.095C189.897 168.25 190.63 167.504 191.466 166.887C192.258 166.282 193.14 165.803 194.079 165.467C195.695 164.862 197.438 164.675 199.146 164.923C200.854 165.171 202.471 165.847 203.848 166.887C204.901 167.68 205.789 168.671 206.461 169.805C206.976 170.655 207.357 171.58 207.59 172.546C207.683 172.893 207.749 173.247 207.789 173.604C207.831 173.864 207.852 174.128 207.853 174.392C207.853 174.591 207.853 174.747 207.853 174.882C207.869 174.937 207.874 174.995 207.867 175.052Z" fill="white"/>
<path opacity="0.1" d="M195.25 170.268C195.448 170.349 195.64 170.444 195.825 170.552L197.522 171.446C198.978 172.22 201.072 173.335 203.508 174.684L203.777 174.833L203.515 174.989L199.51 177.325L195.414 179.689L195.151 179.838V179.54C195.151 176.785 195.151 174.428 195.193 172.795C195.193 172.035 195.193 171.375 195.193 170.907C195.175 170.694 195.175 170.48 195.193 170.268C195.193 170.268 195.193 170.537 195.229 170.978C195.264 171.418 195.264 172.142 195.293 172.923C195.343 174.577 195.406 176.856 195.442 179.519L195.179 179.37L199.269 176.984L203.28 174.662V174.968C200.944 173.647 198.956 172.476 197.515 171.631L195.825 170.637C195.442 170.417 195.25 170.282 195.25 170.268Z" fill="white"/>
<path opacity="0.1" d="M166.474 190.823C166.474 190.724 166.95 190.638 167.546 190.631C168.143 190.624 168.618 190.702 168.618 190.809C168.618 190.915 168.143 190.993 167.546 191C166.95 191.008 166.474 190.929 166.474 190.823Z" fill="#E0E0E0"/>
<path opacity="0.1" d="M162.178 190.858C162.178 190.759 162.654 190.674 163.25 190.666C163.847 190.659 164.322 190.737 164.322 190.844C164.322 190.95 163.847 191.029 163.25 191.036C162.654 191.043 162.178 190.965 162.178 190.858Z" fill="#E0E0E0"/>
<path opacity="0.1" d="M157.883 190.893C157.883 190.794 158.366 190.709 158.955 190.702C159.544 190.695 160.027 190.773 160.034 190.879C160.041 190.986 159.551 191.064 158.955 191.071C158.359 191.078 157.883 191 157.883 190.893Z" fill="#E0E0E0"/>
<path opacity="0.1" d="M153.587 190.928C153.587 190.829 154.07 190.744 154.659 190.737C155.249 190.73 155.732 190.808 155.739 190.914C155.746 191.021 155.256 191.099 154.667 191.106C154.077 191.113 153.587 191.035 153.587 190.928Z" fill="#E0E0E0"/>
<path opacity="0.1" d="M149.292 190.964C149.292 190.864 149.775 190.779 150.364 190.772C150.953 190.765 151.443 190.843 151.443 190.949C151.443 191.056 150.96 191.134 150.371 191.141C149.782 191.148 149.292 191.07 149.292 190.964Z" fill="#E0E0E0"/>
<path opacity="0.1" d="M145.004 190.95C145.004 190.829 145.472 190.836 146.069 190.808C146.665 190.779 147.148 190.879 147.148 190.985C147.148 191.092 146.665 191.17 146.076 191.177C145.486 191.184 144.968 191.035 145.004 190.95Z" fill="#E0E0E0"/>
<path opacity="0.1" d="M141.936 188.252C142.043 188.252 142.235 188.657 142.54 189.132C142.845 189.608 143.15 189.963 143.079 190.041C143.008 190.119 142.568 189.864 142.227 189.331C141.887 188.799 141.844 188.273 141.936 188.252Z" fill="#E0E0E0"/>
<path opacity="0.1" d="M141.752 183.971C141.858 183.971 141.943 184.454 141.943 185.043C141.943 185.632 141.872 186.122 141.773 186.122C141.674 186.122 141.581 185.639 141.574 185.05C141.567 184.461 141.652 183.978 141.752 183.971Z" fill="#E0E0E0"/>
<path opacity="0.1" d="M141.716 179.682C141.823 179.682 141.908 180.157 141.908 180.754C141.908 181.35 141.837 181.826 141.737 181.826C141.638 181.826 141.546 181.343 141.539 180.754C141.531 180.164 141.617 179.682 141.716 179.682Z" fill="#E0E0E0"/>
<path opacity="0.1" d="M141.681 175.387C141.787 175.387 141.873 175.862 141.873 176.459C141.873 177.055 141.802 177.531 141.702 177.531C141.603 177.531 141.51 177.055 141.503 176.459C141.496 175.862 141.581 175.387 141.681 175.387Z" fill="#E0E0E0"/>
<path opacity="0.1" d="M141.645 171.092C141.752 171.092 141.837 171.567 141.837 172.164C141.837 172.76 141.766 173.236 141.666 173.236C141.567 173.236 141.475 172.76 141.468 172.164C141.461 171.567 141.546 171.092 141.645 171.092Z" fill="#E0E0E0"/>
<path opacity="0.1" d="M141.61 166.795C141.716 166.795 141.801 167.271 141.801 167.867C141.801 168.463 141.73 168.939 141.631 168.939C141.531 168.939 141.439 168.463 141.432 167.867C141.425 167.271 141.51 166.795 141.61 166.795Z" fill="#E0E0E0"/>
<path opacity="0.1" d="M141.958 162.551C142.05 162.601 141.908 163.048 141.823 163.609C141.738 164.17 141.709 164.653 141.596 164.645C141.482 164.638 141.361 164.177 141.454 163.545C141.546 162.913 141.865 162.501 141.958 162.551Z" fill="#E0E0E0"/>
<path opacity="0.1" d="M145.387 160.356C145.387 160.455 144.918 160.526 144.379 160.689C143.839 160.853 143.413 161.044 143.356 160.959C143.3 160.874 143.669 160.512 144.272 160.334C144.876 160.157 145.394 160.249 145.387 160.356Z" fill="#E0E0E0"/>
<path opacity="0.1" d="M149.683 160.32C149.683 160.419 149.2 160.505 148.61 160.512C148.021 160.519 147.531 160.434 147.531 160.334C147.531 160.235 148.014 160.143 148.603 160.143C149.193 160.143 149.683 160.249 149.683 160.32Z" fill="#E0E0E0"/>
<path opacity="0.1" d="M153.978 160.285C153.978 160.384 153.495 160.47 152.906 160.477C152.317 160.484 151.827 160.399 151.827 160.299C151.827 160.2 152.309 160.107 152.899 160.107C153.488 160.107 153.978 160.178 153.978 160.285Z" fill="#E0E0E0"/>
<path opacity="0.1" d="M158.273 160.25C158.273 160.349 157.791 160.434 157.201 160.441C156.612 160.449 156.122 160.363 156.122 160.264C156.122 160.165 156.605 160.072 157.194 160.072C157.783 160.072 158.266 160.143 158.273 160.25Z" fill="#E0E0E0"/>
<path opacity="0.1" d="M162.59 160.25C162.59 160.349 162.114 160.434 161.518 160.441C160.922 160.449 160.446 160.363 160.446 160.264C160.446 160.165 160.922 160.072 161.518 160.072C162.114 160.072 162.59 160.108 162.59 160.25Z" fill="#E0E0E0"/>
<path opacity="0.1" d="M166.85 160.179C166.85 160.279 166.375 160.364 165.778 160.371C165.182 160.378 164.706 160.293 164.706 160.194C164.706 160.094 165.182 160.002 165.778 160.002C166.375 160.002 166.85 160.073 166.85 160.179Z" fill="#E0E0E0"/>
<path opacity="0.1" d="M170.926 161.117C170.855 161.188 170.464 160.932 169.953 160.691C169.442 160.449 168.994 160.314 169.009 160.208C169.023 160.101 169.541 160.087 170.109 160.357C170.677 160.627 170.997 161.046 170.926 161.117Z" fill="#E0E0E0"/>
<path opacity="0.1" d="M172.246 165.028C172.14 165.028 172.054 164.553 172.047 163.956C172.04 163.36 171.976 162.934 172.047 162.898C172.118 162.863 172.388 163.324 172.388 163.956C172.388 164.588 172.346 165.028 172.246 165.028Z" fill="#E0E0E0"/>
<path opacity="0.1" d="M172.282 169.324C172.175 169.324 172.09 168.848 172.083 168.252C172.076 167.655 172.161 167.18 172.26 167.18C172.36 167.18 172.452 167.655 172.452 168.252C172.452 168.848 172.381 169.324 172.282 169.324Z" fill="#E0E0E0"/>
<path opacity="0.1" d="M172.317 173.619C172.211 173.619 172.126 173.143 172.119 172.547C172.111 171.95 172.197 171.475 172.296 171.475C172.395 171.475 172.488 171.95 172.488 172.547C172.488 173.143 172.417 173.619 172.317 173.619Z" fill="#E0E0E0"/>
<path opacity="0.1" d="M172.353 177.914C172.246 177.914 172.161 177.438 172.154 176.842C172.147 176.245 172.232 175.77 172.331 175.77C172.431 175.77 172.523 176.245 172.523 176.842C172.523 177.438 172.452 177.914 172.353 177.914Z" fill="#E0E0E0"/>
<path opacity="0.1" d="M172.388 182.211C172.282 182.211 172.196 181.735 172.189 181.139C172.182 180.542 172.267 180.066 172.367 180.066C172.466 180.066 172.559 180.542 172.559 181.139C172.559 181.735 172.488 182.211 172.388 182.211Z" fill="#E0E0E0"/>
<path opacity="0.1" d="M172.424 186.521C172.317 186.521 172.232 186.038 172.225 185.448C172.218 184.859 172.303 184.376 172.403 184.369C172.502 184.362 172.594 184.852 172.594 185.441C172.594 186.031 172.53 186.521 172.424 186.521Z" fill="#E0E0E0"/>
<path opacity="0.1" d="M170.663 190.198C170.613 190.106 170.968 189.801 171.337 189.375C171.707 188.949 171.962 188.558 172.047 188.601C172.133 188.643 172.047 189.148 171.6 189.616C171.153 190.085 170.713 190.284 170.663 190.198Z" fill="#E0E0E0"/>
<path d="M206.937 271.152C206.937 271.046 207.413 270.961 208.009 270.954C208.606 270.946 209.081 271.032 209.081 271.131C209.081 271.23 208.606 271.323 208.009 271.323C207.413 271.323 206.937 271.252 206.937 271.152Z" fill="#E0E0E0"/>
<path d="M202.641 271.187C202.641 271.081 203.117 270.996 203.713 270.989C204.31 270.982 204.785 271.067 204.785 271.166C204.785 271.266 204.31 271.358 203.713 271.358C203.117 271.358 202.641 271.287 202.641 271.187Z" fill="#E0E0E0"/>
<path d="M198.346 271.223C198.346 271.116 198.821 271.031 199.418 271.024C200.014 271.017 200.49 271.102 200.49 271.201C200.49 271.301 200.014 271.393 199.418 271.393C198.821 271.393 198.346 271.322 198.346 271.223Z" fill="#E0E0E0"/>
<path d="M194.05 271.258C194.05 271.151 194.526 271.066 195.122 271.059C195.719 271.052 196.194 271.137 196.194 271.237C196.194 271.336 195.719 271.428 195.122 271.428C194.526 271.428 194.05 271.357 194.05 271.258Z" fill="#E0E0E0"/>
<path d="M189.755 271.293C189.755 271.186 190.238 271.101 190.827 271.094C191.416 271.087 191.899 271.172 191.906 271.272C191.913 271.371 191.423 271.463 190.834 271.463C190.245 271.463 189.755 271.392 189.755 271.293Z" fill="#E0E0E0"/>
<path d="M185.459 271.272C185.495 271.158 185.935 271.158 186.531 271.13C187.128 271.101 187.61 271.208 187.61 271.307C187.61 271.407 187.128 271.499 186.538 271.499C185.949 271.499 185.431 271.357 185.459 271.272Z" fill="#E0E0E0"/>
<path d="M182.399 268.582C182.499 268.582 182.698 268.98 183.003 269.455C183.308 269.931 183.614 270.286 183.543 270.364C183.472 270.442 183.031 270.187 182.691 269.654C182.35 269.122 182.3 268.596 182.399 268.582Z" fill="#E0E0E0"/>
<path opacity="0.1" d="M182.215 264.301C182.314 264.301 182.406 264.776 182.406 265.373C182.406 265.969 182.335 266.445 182.229 266.445C182.122 266.445 182.044 265.969 182.037 265.373C182.03 264.776 182.115 264.301 182.215 264.301Z" fill="#E0E0E0"/>
<path opacity="0.1" d="M182.179 260.004C182.278 260.004 182.371 260.48 182.371 261.076C182.371 261.672 182.3 262.148 182.193 262.148C182.087 262.148 182.008 261.672 182.001 261.076C181.994 260.48 182.079 260.004 182.179 260.004Z" fill="#E0E0E0"/>
<path opacity="0.1" d="M182.144 255.709C182.243 255.709 182.335 256.185 182.335 256.781C182.335 257.377 182.264 257.853 182.158 257.853C182.051 257.853 181.973 257.377 181.966 256.781C181.959 256.185 182.044 255.709 182.144 255.709Z" fill="#E0E0E0"/>
<path opacity="0.1" d="M182.108 251.414C182.207 251.414 182.3 251.897 182.3 252.486C182.3 253.075 182.229 253.558 182.129 253.558C182.03 253.558 181.938 253.083 181.931 252.486C181.923 251.89 182.009 251.414 182.108 251.414Z" fill="#E0E0E0"/>
<path opacity="0.1" d="M182.072 247.119C182.172 247.119 182.264 247.602 182.264 248.191C182.264 248.781 182.193 249.263 182.087 249.27C181.98 249.278 181.902 248.788 181.895 248.198C181.888 247.609 181.973 247.119 182.072 247.119Z" fill="#E0E0E0"/>
<path opacity="0.1" d="M182.414 242.879C182.513 242.922 182.371 243.376 182.286 243.93C182.201 244.484 182.172 244.973 182.059 244.973C181.945 244.973 181.824 244.498 181.917 243.873C182.009 243.248 182.328 242.829 182.414 242.879Z" fill="#E0E0E0"/>
<path opacity="0.1" d="M185.85 240.678C185.85 240.784 185.381 240.848 184.842 241.011C184.302 241.175 183.876 241.374 183.819 241.281C183.762 241.189 184.132 240.834 184.735 240.656C185.339 240.479 185.857 240.578 185.85 240.678Z" fill="#E0E0E0"/>
<path opacity="0.1" d="M190.145 240.643C190.145 240.742 189.663 240.827 189.073 240.834C188.484 240.842 187.994 240.763 187.994 240.657C187.994 240.55 188.477 240.472 189.066 240.465C189.656 240.458 190.138 240.536 190.145 240.643Z" fill="#E0E0E0"/>
<path opacity="0.1" d="M194.441 240.608C194.441 240.707 193.958 240.792 193.369 240.799C192.779 240.807 192.29 240.728 192.29 240.622C192.29 240.515 192.772 240.437 193.362 240.43C193.951 240.423 194.434 240.48 194.441 240.608Z" fill="#E0E0E0"/>
<path opacity="0.1" d="M198.729 240.572C198.729 240.672 198.253 240.757 197.657 240.764C197.061 240.771 196.585 240.693 196.585 240.587C196.585 240.48 197.061 240.402 197.657 240.395C198.253 240.388 198.729 240.48 198.729 240.572Z" fill="#E0E0E0"/>
<path opacity="0.1" d="M203.06 240.537C203.06 240.637 202.585 240.722 201.988 240.729C201.392 240.736 200.916 240.658 200.916 240.552C200.916 240.445 201.392 240.367 201.988 240.36C202.585 240.353 203.06 240.431 203.06 240.537Z" fill="#E0E0E0"/>
<path opacity="0.1" d="M207.32 240.481C207.32 240.58 206.845 240.665 206.248 240.672C205.652 240.679 205.176 240.601 205.176 240.495C205.176 240.388 205.652 240.31 206.248 240.303C206.845 240.296 207.32 240.395 207.32 240.481Z" fill="#E0E0E0"/>
<path opacity="0.1" d="M211.389 241.439C211.318 241.517 210.92 241.254 210.409 241.02C209.898 240.785 209.457 240.636 209.464 240.537C209.472 240.438 209.997 240.416 210.572 240.686C211.147 240.956 211.46 241.368 211.389 241.439Z" fill="#E0E0E0"/>
<path opacity="0.1" d="M212.702 245.358C212.603 245.358 212.517 244.875 212.51 244.286C212.503 243.696 212.439 243.256 212.51 243.221C212.581 243.185 212.844 243.647 212.851 244.279C212.858 244.91 212.808 245.358 212.702 245.358Z" fill="#E0E0E0"/>
<path opacity="0.1" d="M212.738 249.653C212.638 249.653 212.553 249.17 212.546 248.581C212.539 247.992 212.617 247.502 212.723 247.502C212.83 247.502 212.908 247.985 212.915 248.574C212.922 249.163 212.844 249.646 212.738 249.653Z" fill="#E0E0E0"/>
<path opacity="0.1" d="M212.773 253.97C212.674 253.97 212.589 253.495 212.582 252.898C212.574 252.302 212.653 251.826 212.759 251.826C212.866 251.826 212.944 252.309 212.951 252.898C212.958 253.488 212.88 253.97 212.773 253.97Z" fill="#E0E0E0"/>
<path opacity="0.1" d="M212.808 258.23C212.709 258.23 212.624 257.754 212.617 257.158C212.61 256.562 212.688 256.086 212.794 256.086C212.901 256.086 212.979 256.562 212.986 257.158C212.993 257.754 212.915 258.23 212.808 258.23Z" fill="#E0E0E0"/>
<path opacity="0.1" d="M212.844 262.533C212.745 262.533 212.659 262.057 212.652 261.461C212.645 260.864 212.723 260.389 212.83 260.389C212.936 260.389 213.014 260.864 213.021 261.461C213.029 262.057 212.95 262.533 212.844 262.533Z" fill="#E0E0E0"/>
<path opacity="0.1" d="M212.88 266.828C212.78 266.828 212.695 266.352 212.688 265.756C212.681 265.159 212.759 264.684 212.865 264.684C212.972 264.684 213.05 265.159 213.057 265.756C213.064 266.352 213 266.828 212.88 266.828Z" fill="#E0E0E0"/>
<path d="M211.126 270.521C211.076 270.428 211.431 270.123 211.8 269.697C212.169 269.271 212.425 268.881 212.51 268.923C212.595 268.966 212.51 269.47 212.063 269.946C211.616 270.421 211.175 270.606 211.126 270.521Z" fill="#E0E0E0"/>
<path opacity="0.1" d="M206.937 231.867C206.937 231.761 207.413 231.675 208.009 231.668C208.606 231.661 209.081 231.746 209.081 231.846C209.081 231.945 208.606 232.038 208.009 232.038C207.413 232.038 206.937 231.959 206.937 231.867Z" fill="#E0E0E0"/>
<path opacity="0.1" d="M202.641 231.902C202.641 231.796 203.117 231.711 203.713 231.704C204.31 231.696 204.785 231.782 204.785 231.881C204.785 231.98 204.31 232.073 203.713 232.073C203.117 232.073 202.641 232.002 202.641 231.902Z" fill="#E0E0E0"/>
<path opacity="0.1" d="M198.346 231.959C198.346 231.852 198.821 231.767 199.418 231.76C200.014 231.753 200.49 231.838 200.49 231.938C200.49 232.037 200.014 232.129 199.418 232.129C198.821 232.129 198.346 232.037 198.346 231.959Z" fill="#E0E0E0"/>
<path opacity="0.1" d="M194.05 231.959C194.05 231.852 194.526 231.767 195.122 231.76C195.719 231.753 196.194 231.838 196.194 231.938C196.194 232.037 195.719 232.129 195.122 232.129C194.526 232.129 194.05 232.073 194.05 231.959Z" fill="#E0E0E0"/>
<path opacity="0.1" d="M189.755 232.01C189.755 231.903 190.238 231.818 190.827 231.811C191.416 231.804 191.899 231.889 191.906 231.988C191.913 232.088 191.423 232.18 190.834 232.18C190.245 232.18 189.755 232.109 189.755 232.01Z" fill="#E0E0E0"/>
<path opacity="0.1" d="M185.459 231.959C185.495 231.846 185.935 231.846 186.531 231.817C187.128 231.789 187.61 231.895 187.61 231.995C187.61 232.094 187.128 232.186 186.538 232.186C185.949 232.186 185.431 232.073 185.459 231.959Z" fill="#E0E0E0"/>
<path opacity="0.1" d="M182.399 229.297C182.499 229.297 182.698 229.694 183.003 230.17C183.308 230.646 183.614 231.001 183.543 231.079C183.472 231.157 183.031 230.901 182.691 230.369C182.35 229.836 182.3 229.311 182.399 229.297Z" fill="#E0E0E0"/>
<path opacity="0.1" d="M182.215 225.016C182.314 225.016 182.406 225.491 182.406 226.088C182.406 226.684 182.335 227.16 182.229 227.16C182.122 227.16 182.044 226.684 182.037 226.088C182.03 225.491 182.115 225.016 182.215 225.016Z" fill="#E0E0E0"/>
<path opacity="0.1" d="M182.179 220.721C182.278 220.721 182.371 221.196 182.371 221.793C182.371 222.389 182.3 222.865 182.193 222.865C182.087 222.865 182.008 222.389 182.001 221.793C181.994 221.196 182.079 220.721 182.179 220.721Z" fill="#E0E0E0"/>
<path opacity="0.1" d="M182.144 216.426C182.243 216.426 182.335 216.901 182.335 217.498C182.335 218.094 182.264 218.57 182.158 218.57C182.051 218.57 181.973 218.094 181.966 217.498C181.959 216.901 182.044 216.426 182.144 216.426Z" fill="#E0E0E0"/>
<path opacity="0.1" d="M182.108 212.129C182.207 212.129 182.3 212.612 182.3 213.201C182.3 213.79 182.229 214.273 182.129 214.273C182.03 214.273 181.938 213.797 181.931 213.201C181.923 212.605 182.009 212.129 182.108 212.129Z" fill="#E0E0E0"/>
<path opacity="0.1" d="M182.072 207.82C182.172 207.82 182.264 208.303 182.264 208.892C182.264 209.482 182.193 209.965 182.087 209.972C181.98 209.979 181.902 209.489 181.895 208.9C181.888 208.31 181.973 207.82 182.072 207.82Z" fill="#E0E0E0"/>
<path opacity="0.1" d="M182.414 203.596C182.513 203.639 182.371 204.093 182.286 204.647C182.201 205.201 182.172 205.69 182.059 205.69C181.945 205.69 181.824 205.215 181.917 204.59C182.009 203.965 182.328 203.56 182.414 203.596Z" fill="#E0E0E0"/>
<path opacity="0.1" d="M185.85 201.429C185.85 201.535 185.381 201.599 184.842 201.762C184.302 201.926 183.876 202.125 183.819 202.032C183.762 201.94 184.132 201.585 184.735 201.407C185.339 201.23 185.857 201.294 185.85 201.429Z" fill="#E0E0E0"/>
<path opacity="0.1" d="M190.145 201.36C190.145 201.459 189.663 201.544 189.073 201.551C188.484 201.558 187.994 201.48 187.994 201.374C187.994 201.267 188.477 201.189 189.066 201.182C189.656 201.175 190.138 201.253 190.145 201.36Z" fill="#E0E0E0"/>
<path opacity="0.1" d="M194.441 201.322C194.441 201.422 193.958 201.507 193.369 201.514C192.779 201.521 192.29 201.443 192.29 201.337C192.29 201.23 192.772 201.152 193.362 201.145C193.951 201.138 194.434 201.216 194.441 201.322Z" fill="#E0E0E0"/>
<path opacity="0.1" d="M198.729 201.287C198.729 201.387 198.253 201.472 197.657 201.479C197.061 201.486 196.585 201.408 196.585 201.302C196.585 201.195 197.061 201.117 197.657 201.11C198.253 201.103 198.729 201.181 198.729 201.287Z" fill="#E0E0E0"/>
<path opacity="0.1" d="M203.06 201.252C203.06 201.352 202.585 201.437 201.988 201.444C201.392 201.451 200.916 201.373 200.916 201.266C200.916 201.16 201.392 201.082 201.988 201.075C202.585 201.068 203.06 201.146 203.06 201.252Z" fill="#E0E0E0"/>
<path opacity="0.1" d="M207.32 201.217C207.32 201.316 206.845 201.402 206.248 201.409C205.652 201.416 205.176 201.338 205.176 201.231C205.176 201.125 205.652 201.047 206.248 201.04C206.845 201.032 207.32 201.111 207.32 201.217Z" fill="#E0E0E0"/>
<path opacity="0.1" d="M211.389 202.14C211.318 202.218 210.92 201.955 210.409 201.721C209.898 201.487 209.457 201.338 209.464 201.238C209.472 201.139 209.997 201.117 210.572 201.387C211.147 201.657 211.46 202.083 211.389 202.14Z" fill="#E0E0E0"/>
<path opacity="0.1" d="M212.702 206.073C212.603 206.073 212.517 205.59 212.51 205.001C212.503 204.411 212.439 203.971 212.51 203.936C212.581 203.9 212.844 204.362 212.851 204.993C212.858 205.625 212.808 206.073 212.702 206.073Z" fill="#E0E0E0"/>
<path opacity="0.1" d="M212.738 210.368C212.638 210.368 212.553 209.885 212.546 209.296C212.539 208.707 212.617 208.217 212.723 208.217C212.83 208.217 212.908 208.7 212.915 209.289C212.922 209.878 212.844 210.361 212.738 210.368Z" fill="#E0E0E0"/>
<path opacity="0.1" d="M212.773 214.665C212.674 214.665 212.589 214.182 212.582 213.593C212.574 213.004 212.653 212.514 212.759 212.514C212.866 212.514 212.944 212.996 212.951 213.586C212.958 214.175 212.88 214.658 212.773 214.665Z" fill="#E0E0E0"/>
<path opacity="0.1" d="M212.808 218.953C212.709 218.953 212.624 218.477 212.617 217.881C212.61 217.284 212.688 216.809 212.794 216.809C212.901 216.809 212.979 217.284 212.986 217.881C212.993 218.477 212.915 218.953 212.808 218.953Z" fill="#E0E0E0"/>
<path opacity="0.1" d="M212.844 223.248C212.745 223.248 212.659 222.772 212.652 222.176C212.645 221.579 212.723 221.104 212.83 221.104C212.936 221.104 213.014 221.579 213.021 222.176C213.029 222.772 212.95 223.248 212.844 223.248Z" fill="#E0E0E0"/>
<path opacity="0.1" d="M212.88 227.543C212.78 227.543 212.695 227.067 212.688 226.471C212.681 225.874 212.759 225.398 212.865 225.398C212.972 225.398 213.05 225.874 213.057 226.471C213.064 227.067 213 227.543 212.88 227.543Z" fill="#E0E0E0"/>
<path opacity="0.1" d="M211.126 231.249C211.076 231.157 211.431 230.852 211.8 230.426C212.169 230 212.425 229.609 212.51 229.652C212.595 229.694 212.51 230.198 212.063 230.674C211.616 231.15 211.175 231.32 211.126 231.249Z" fill="#E0E0E0"/>
<path d="M170.201 281.774C170.204 282.073 170.118 282.366 169.954 282.616C169.79 282.866 169.556 283.062 169.281 283.179C169.006 283.297 168.702 283.329 168.408 283.274C168.114 283.218 167.843 283.077 167.63 282.867C167.416 282.658 167.27 282.39 167.209 282.097C167.148 281.804 167.175 281.5 167.286 281.222C167.398 280.945 167.59 280.707 167.837 280.538C168.084 280.37 168.376 280.278 168.675 280.276C168.874 280.273 169.071 280.309 169.256 280.383C169.44 280.457 169.608 280.567 169.75 280.706C169.892 280.846 170.005 281.012 170.083 281.195C170.16 281.378 170.2 281.575 170.201 281.774Z" fill="#263238"/>
<path d="M178.65 281.702C178.655 282.002 178.57 282.296 178.406 282.547C178.243 282.798 178.009 282.996 177.733 283.114C177.458 283.232 177.154 283.265 176.859 283.21C176.564 283.154 176.293 283.013 176.079 282.803C175.865 282.593 175.718 282.324 175.658 282.031C175.597 281.737 175.624 281.432 175.737 281.155C175.85 280.877 176.042 280.639 176.291 280.471C176.539 280.303 176.831 280.212 177.131 280.211C177.329 280.209 177.525 280.246 177.708 280.32C177.891 280.394 178.058 280.503 178.2 280.642C178.341 280.78 178.453 280.945 178.53 281.127C178.608 281.309 178.649 281.504 178.65 281.702Z" fill="#263238"/>
<path d="M187.106 281.659C187.111 281.959 187.026 282.253 186.863 282.504C186.699 282.755 186.465 282.953 186.189 283.071C185.914 283.188 185.61 283.222 185.315 283.167C185.02 283.111 184.749 282.97 184.535 282.76C184.321 282.55 184.174 282.281 184.114 281.988C184.053 281.694 184.08 281.389 184.193 281.111C184.306 280.834 184.498 280.596 184.747 280.428C184.995 280.26 185.287 280.169 185.587 280.168C185.986 280.166 186.369 280.322 186.654 280.601C186.938 280.88 187.101 281.26 187.106 281.659Z" fill="#263238"/>
<path d="M217.26 99.1901C217.26 99.2469 215.28 99.318 212.83 99.3393C210.381 99.3606 208.393 99.3393 208.393 99.2612C208.393 99.1831 210.373 99.1333 212.823 99.112C215.272 99.0907 217.26 99.1475 217.26 99.1901Z" fill="#263238"/>
<path d="M217.303 101.483C217.303 101.539 215.315 101.603 212.865 101.625C210.416 101.646 208.435 101.625 208.428 101.554C209.903 101.429 211.384 101.379 212.865 101.404C214.345 101.353 215.826 101.379 217.303 101.483Z" fill="#263238"/>
<path d="M217.324 103.747C215.849 103.872 214.367 103.922 212.887 103.897C210.437 103.897 208.449 103.897 208.449 103.826C209.925 103.701 211.406 103.651 212.887 103.676C215.336 103.655 217.324 103.691 217.324 103.747Z" fill="#263238"/>
<path d="M136.597 106.34H136.782H137.3L139.16 106.29C139.16 105.871 139.16 105.41 139.16 104.92C139.16 104.664 139.16 104.423 139.16 104.125C139.192 103.97 139.271 103.829 139.387 103.722C139.503 103.615 139.65 103.547 139.806 103.528C140.119 103.528 140.381 103.528 140.715 103.528C140.893 103.557 141.054 103.647 141.171 103.784C141.288 103.92 141.353 104.094 141.354 104.274C141.354 104.92 141.354 105.587 141.354 106.283L141.248 106.177H143.64L143.534 106.283C143.534 105.318 143.534 104.324 143.534 103.308C143.534 103.053 143.534 102.797 143.534 102.548C143.526 102.436 143.492 102.328 143.434 102.231C143.376 102.135 143.296 102.054 143.2 101.995L142.156 100.965L141.148 99.9712L140.665 99.4884C140.495 99.3251 140.367 99.1618 140.176 99.1263C140.085 99.1013 139.99 99.0973 139.898 99.1145C139.806 99.1317 139.718 99.1698 139.643 99.2257C139.501 99.3464 139.345 99.5168 139.196 99.6588L138.344 100.525C137.804 101.086 137.236 101.597 136.831 102.08C136.712 102.357 136.671 102.661 136.711 102.96V103.798C136.711 104.316 136.711 104.764 136.711 105.154C136.711 105.545 136.711 105.779 136.711 106.028C136.721 106.131 136.721 106.236 136.711 106.34C136.705 106.245 136.705 106.15 136.711 106.056C136.711 105.814 136.711 105.538 136.711 105.204C136.711 104.87 136.711 104.352 136.675 103.834C136.675 103.564 136.675 103.28 136.675 102.975C136.629 102.642 136.673 102.304 136.803 101.995C137.25 101.448 137.776 100.972 138.315 100.397L139.167 99.5239C139.324 99.3748 139.444 99.2257 139.629 99.0624C139.729 98.9874 139.845 98.9363 139.968 98.9129C140.091 98.8895 140.218 98.8945 140.339 98.9275C140.568 99.0067 140.77 99.1496 140.921 99.3393L141.411 99.8221L142.426 100.809L143.47 101.838C143.584 101.921 143.678 102.027 143.747 102.15C143.815 102.272 143.856 102.408 143.868 102.548C143.868 102.804 143.868 103.053 143.868 103.308C143.868 104.331 143.868 105.325 143.868 106.29V106.397H143.761H141.375H141.269V106.29C141.269 105.58 141.269 104.927 141.269 104.288C141.271 104.152 141.224 104.02 141.136 103.916C141.049 103.812 140.927 103.742 140.793 103.72C140.523 103.72 140.197 103.72 139.934 103.72C139.813 103.734 139.699 103.785 139.609 103.866C139.519 103.948 139.456 104.055 139.43 104.174C139.43 104.409 139.43 104.693 139.43 104.941V106.361H139.16H137.236H136.732C136.686 106.359 136.641 106.352 136.597 106.34Z" fill="#263238"/>
<path d="M243.703 242.363L220.728 242.593C218.61 242.614 216.911 244.347 216.932 246.465L217.162 269.44C217.183 271.558 218.917 273.257 221.034 273.236L244.01 273.006C246.127 272.985 247.826 271.251 247.805 269.134L247.575 246.158C247.554 244.041 245.821 242.342 243.703 242.363Z" fill="#455A64"/>
<path d="M224.453 256.882L224.772 257.13L225.631 257.84L228.777 260.424L228.819 260.46V260.517C228.67 262.079 228.493 263.96 228.287 266.069L228.059 265.927L232.802 262.988L232.88 262.938L232.958 262.98L238.07 265.224L237.822 265.43C237.396 263.683 236.956 261.88 236.501 260.013C236.501 259.935 236.459 260.176 236.544 259.842V259.807L236.608 259.736L236.729 259.608L236.963 259.338L237.439 258.813L238.376 257.762L240.215 255.717L240.335 256.022L234.776 255.582H234.684L234.641 255.504L231.858 250.669H232.121L229.991 255.817V255.873H229.934L225.937 256.661L224.85 256.867C224.719 256.9 224.587 256.924 224.453 256.938L224.793 256.853L225.837 256.605L229.884 255.66L229.806 255.724L231.901 250.548L232.007 250.271L232.163 250.534L235.003 255.348L234.868 255.263L240.435 255.682H240.797L240.555 255.951L238.724 258.003L237.786 259.047L237.311 259.58L237.069 259.842L236.956 259.977L236.892 260.048C236.977 259.714 236.892 259.956 236.934 259.885C237.382 261.738 237.822 263.556 238.241 265.302L238.326 265.664L237.992 265.515L232.895 263.243H233.051L228.287 266.147L228.031 266.303L228.067 266.005C228.294 263.875 228.5 262.015 228.67 260.46L228.713 260.552L225.589 257.805L224.786 257.095L224.453 256.882Z" fill="#FAFAFA"/>
<path d="M99.0449 247.211L104.647 300.738H94.9198L85.207 254.453L99.0449 247.211Z" fill="#FFBE9D"/>
<path d="M81.0394 220.812H64.0704L67.6772 251.982L42.3018 287.34L47.4777 293.957L75.6576 264.662L81.5293 258.357C82.1472 257.693 82.6228 256.91 82.9269 256.055C83.2309 255.2 83.3569 254.292 83.2972 253.387L81.0394 220.812Z" fill="#FFBE9D"/>
<path d="M81.785 242.127C81.8426 242.239 81.8856 242.359 81.9128 242.482C81.9838 242.716 82.0832 243.064 82.1968 243.519C82.424 244.427 82.7293 245.748 82.9991 247.402C83.3394 249.338 83.4916 251.302 83.4535 253.267C83.4279 254.447 83.2023 255.613 82.7861 256.717C82.2526 257.854 81.5327 258.893 80.6561 259.792C77.1061 263.484 73.9182 266.792 71.5894 269.185L68.8062 272.025L68.0394 272.778C67.8619 272.948 67.7625 273.033 67.7554 273.019C67.8222 272.913 67.9008 272.816 67.9897 272.728L68.6997 271.926L71.3906 269.029C73.7265 266.565 76.886 263.242 80.3721 259.557C81.2443 258.695 81.9645 257.692 82.5021 256.59C82.9064 255.529 83.1297 254.408 83.1624 253.274C83.2128 251.329 83.0892 249.382 82.7932 247.459C82.5518 245.812 82.2891 244.484 82.0832 243.575L81.8702 242.517C81.8222 242.392 81.7935 242.261 81.785 242.127Z" fill="#EB996E"/>
<path d="M114.757 178.944L115.056 178.901C117.47 178.56 119.864 178.086 122.227 177.481C125.13 176.587 125.067 176.317 124.903 175.997C124.491 175.124 119.749 177.375 120.501 176.295C121.254 175.216 126.607 174.222 126.139 173.328C125.528 172.17 120.601 174.62 120.168 174.797C119.734 174.975 119.458 174.35 119.884 174.208C120.452 174.009 126.401 171.78 125.812 170.658C125.485 170.026 124.392 170.75 124.392 170.75C124.392 170.75 118.968 173.25 118.712 172.703C118.456 172.156 121.588 170.573 122.681 170.104C123.774 169.636 123.994 168.954 123.391 168.635C122.993 168.414 119.614 169.735 118.542 170.211C117.47 170.686 114.551 172.05 115.474 170.211C115.474 170.211 115.474 170.147 115.51 170.118C116.468 168.322 116.618 166.618 116.319 166.093C116.244 165.985 116.14 165.9 116.019 165.847C115.898 165.795 115.764 165.777 115.634 165.797C115.503 165.816 115.381 165.871 115.28 165.956C115.179 166.041 115.104 166.152 115.063 166.277C115.019 166.366 114.995 166.463 114.992 166.561C114.988 166.613 114.988 166.666 114.992 166.718C114.797 167.393 114.535 168.047 114.211 168.67C113.928 169.232 113.553 169.743 113.103 170.182C112.592 170.679 112.13 171.091 111.733 171.425L107.707 173.029L111.356 179.931L113.962 179.427" fill="#FFBE9D"/>
<path d="M98.9738 174.741L112.464 170.296L115.552 180.13L97.1775 186.605C95.6072 187.158 93.8872 187.108 92.352 186.464C90.8167 185.819 89.5758 184.627 88.8705 183.119L85.7607 171.148L95.2037 164.006L98.9738 174.741Z" fill="#16A75C"/>
<path d="M70.695 148.258C70.695 148.258 55.2312 146.199 56.495 161.812C56.9068 167.016 59.2285 174.45 60.9112 178.589C61.4758 179.986 61.5286 181.538 61.0603 182.97C59.5835 187.592 55.8702 194.415 55.2383 198.235L87.1386 200.905L87.0463 174.45L92.5417 172.199L97.178 170.375C91.072 144.616 79.712 147.939 79.712 147.939L70.695 148.23" fill="#16A75C"/>
<g opacity="0.2">
<path d="M61.3655 179.88C61.6708 182.245 60.6555 184.339 59.6189 186.746C59.6189 186.746 64.1132 197.268 68.3164 197.737C71.8664 198.142 79.7332 198.88 87.1243 199.576L87.3728 193.612L57.1694 165.979C57.7232 169.628 59.4343 174.286 61.3655 179.88Z" fill="black"/>
</g>
<path d="M101.53 247.728C93.9191 231.952 87.6214 215.068 87.1457 197.552L87.3445 167.945L75.0686 169.365L69.9637 197.929L55.0537 198.248C52.0575 205.348 52.6681 213.094 54.7058 220.18C57.0914 228.494 62.2247 236.546 60.8686 245.087C60.542 247.11 59.9314 249.439 61.2307 251.015C62.0969 252.073 63.5524 252.435 64.8872 252.677C75.4733 254.807 86.6274 256.901 96.894 253.543C97.6213 253.349 98.2787 252.953 98.7897 252.4C100.657 250.142 102.141 248.935 101.53 247.728Z" fill="#263238"/>
<path d="M69.5373 199.932C69.5803 200.419 69.4946 200.909 69.2888 201.352C68.8788 202.468 68.1148 203.419 67.1135 204.06C66.1123 204.701 64.9288 204.997 63.7437 204.902C63.2462 204.905 62.7566 204.778 62.3237 204.533C62.3237 204.476 62.8704 204.632 63.7437 204.639C64.86 204.658 65.957 204.348 66.8977 203.746C67.8385 203.145 68.5813 202.28 69.0332 201.26C69.4024 200.464 69.4734 199.918 69.5373 199.932Z" fill="#455A64"/>
<path d="M86.4495 158.971C86.4463 159.212 86.408 159.451 86.3359 159.681C86.2365 160.135 86.0874 160.795 85.8886 161.612V161.513C86.2791 162.173 86.7122 162.975 87.1453 163.877C87.6427 164.854 88.0308 165.882 88.3026 166.944C88.3465 167.159 88.3727 167.378 88.3807 167.597C88.3807 167.803 88.3807 168.009 88.3807 168.215C88.3807 168.62 88.331 169.017 88.2884 169.401C88.2032 170.117 88.08 170.828 87.9192 171.531C87.6964 172.545 87.3852 173.538 86.9891 174.498V174.449C87.0063 174.778 86.9777 175.107 86.9039 175.429C86.8396 175.106 86.811 174.777 86.8187 174.449C87.1396 173.476 87.4004 172.485 87.5997 171.481C87.7275 170.835 87.8411 170.132 87.9192 169.351C87.9192 168.975 87.9831 168.584 87.9973 168.186V167.583C87.9873 167.388 87.9635 167.193 87.9263 167.001C87.6612 165.968 87.2925 164.964 86.8258 164.005C86.4069 163.103 86.0022 162.301 85.6401 161.626V161.576V161.527C85.8744 160.724 86.0661 160.071 86.2081 159.624C86.2586 159.396 86.3398 159.176 86.4495 158.971Z" fill="#263238"/>
<path d="M80.0599 171.24C80.0599 171.24 79.9676 171.617 79.5984 172.092C79.1062 172.705 78.4775 173.195 77.7625 173.521C77.0475 173.848 76.266 174.003 75.4804 173.974C75.1547 173.983 74.8328 173.902 74.5503 173.739C75.6 173.738 76.6401 173.54 77.6175 173.157C78.543 172.674 79.3711 172.025 80.0599 171.24Z" fill="#263238"/>
<path d="M61.5996 149.798C61.5996 149.798 70.6876 156.188 75.331 169.351L77.39 169.088C77.39 169.088 73.911 155.989 63.1048 149.123C62.5732 149.274 62.0663 149.501 61.5996 149.798Z" fill="#263238"/>
<path d="M81.0819 148.03C81.0819 148.03 86.7619 157.743 86.9536 168.35H85.0082C85.0082 168.35 82.7433 151.921 78.6182 147.824L81.0819 148.03Z" fill="#263238"/>
<path d="M77.6601 169.053C77.6956 169.053 77.8802 169.323 78.0435 169.855C78.144 170.179 78.1635 170.523 78.1003 170.856C78.0585 171.073 77.9668 171.277 77.8324 171.452C77.6981 171.627 77.5248 171.768 77.3264 171.864C77.1135 171.948 76.8809 171.967 76.6574 171.919C76.434 171.871 76.2295 171.758 76.0697 171.595C75.8255 171.35 75.6599 171.039 75.594 170.7C75.4804 170.153 75.5159 169.82 75.594 169.812C75.6721 169.805 75.7076 170.139 75.878 170.629C75.9676 170.902 76.1266 171.146 76.3395 171.339C76.4516 171.451 76.5934 171.528 76.7481 171.562C76.9029 171.596 77.0641 171.585 77.2128 171.531C77.3595 171.455 77.4881 171.349 77.5899 171.219C77.6916 171.089 77.764 170.939 77.8021 170.778C77.8614 170.492 77.8614 170.198 77.8021 169.912C77.6956 169.401 77.6033 169.074 77.6601 169.053Z" fill="#455A64"/>
<path d="M76.5596 169.877C76.5596 169.927 76.5596 169.998 76.5596 170.083C76.5627 170.101 76.5693 170.117 76.5791 170.132C76.5888 170.146 76.6015 170.159 76.6164 170.168C76.6398 170.173 76.664 170.173 76.6874 170.168C76.73 170.168 76.7442 170.168 76.7513 170.119C76.7616 170.086 76.7616 170.052 76.7513 170.019C76.7016 169.948 76.6306 169.927 76.6093 169.884C76.588 169.842 76.6874 169.721 76.8862 169.799C76.9467 169.823 76.9997 169.862 77.0397 169.914C77.0796 169.965 77.1051 170.026 77.1134 170.09C77.1236 170.177 77.1056 170.264 77.0621 170.34C77.0186 170.415 76.9519 170.475 76.872 170.509C76.7931 170.546 76.7046 170.557 76.6191 170.54C76.5336 170.524 76.4556 170.481 76.3963 170.417C76.3536 170.367 76.3252 170.306 76.314 170.241C76.3028 170.176 76.3091 170.109 76.3324 170.048C76.3821 169.835 76.5525 169.835 76.5596 169.877Z" fill="#455A64"/>
<path d="M86.1016 169.515C86.1016 169.565 85.988 169.621 85.7963 169.6C85.5462 169.559 85.319 169.43 85.1561 169.236C84.9932 169.042 84.9055 168.796 84.9088 168.542C84.9088 168.35 85.0011 168.251 85.0437 168.258C85.0863 168.265 85.1502 168.663 85.4413 168.968C85.7324 169.273 86.0945 169.415 86.1016 169.515Z" fill="#455A64"/>
<path d="M83.7803 175.522C82.9047 175.845 81.9904 176.05 81.061 176.133C80.1525 176.334 79.2216 176.415 78.292 176.374C79.1653 176.052 80.0772 175.847 81.0042 175.764C81.915 175.562 82.8483 175.481 83.7803 175.522Z" fill="#455A64"/>
<path d="M79.9604 207.99C80.1994 208.763 80.4888 209.52 80.8266 210.255C81.3875 211.633 82.1614 213.542 82.9566 215.665C83.7518 217.788 84.4973 219.719 85.0156 221.125C85.2626 221.895 85.5615 222.647 85.9102 223.376C85.8874 223.158 85.8373 222.943 85.7611 222.737C85.6546 222.332 85.4771 221.757 85.2428 221.047C84.7813 219.627 84.0997 217.668 83.269 215.545C82.4383 213.422 81.6289 211.519 81.0112 210.156C80.6988 209.446 80.4361 208.927 80.2515 208.558C80.1786 208.357 80.0808 208.167 79.9604 207.99Z" fill="#455A64"/>
<path d="M47.9109 294.588L48.557 294.02L42.6001 286.686L39.9092 289.036L40.2713 289.497C41.8759 291.535 48.5783 299.75 50.119 300.701C51.8301 301.759 47.9109 294.588 47.9109 294.588Z" fill="#16A75C"/>
<g opacity="0.5">
<path d="M42.2166 291.544C42.7218 290.917 42.975 290.125 42.9266 289.321C42.8966 288.518 42.5614 287.756 41.9894 287.191L40.0156 288.931L42.2166 291.544Z" fill="white"/>
</g>
<g opacity="0.5">
<path d="M49.7 298.188C49.7 298.188 50.9496 300.815 50.41 300.858C49.8704 300.9 42.742 292.856 39.9233 289.036L40.0937 288.908L48.28 298.365C48.28 298.365 49.345 297.79 49.7 298.188Z" fill="white"/>
</g>
<path d="M39.9873 288.795C40.0121 288.844 40.0431 288.889 40.0796 288.93L40.3636 289.292L41.4357 290.627C42.3516 291.741 43.6367 293.261 45.0922 294.887C46.5477 296.513 47.8967 298.011 48.8836 299.054L50.0693 300.29L50.3959 300.624C50.4298 300.663 50.4678 300.699 50.5095 300.73C50.5095 300.73 50.5095 300.687 50.4101 300.609L50.0977 300.261L48.9404 299.005C47.9677 297.94 46.6258 296.463 45.1774 294.816C43.729 293.169 42.4297 291.649 41.4996 290.556L40.3991 289.249L40.1009 288.901C40.0658 288.863 40.0278 288.828 39.9873 288.795Z" fill="#263238"/>
<path d="M48.1592 298.459C48.6712 298.161 49.2738 298.057 49.8561 298.168C49.5774 298.037 49.2653 297.995 48.9619 298.047C48.6585 298.099 48.3783 298.243 48.1592 298.459Z" fill="#263238"/>
<path d="M47.3784 295.448C47.3784 295.483 47.5914 295.448 47.847 295.448C48.0036 295.438 48.1562 295.394 48.2943 295.32C48.1399 295.287 47.9801 295.287 47.8257 295.32C47.6691 295.33 47.5165 295.373 47.3784 295.448Z" fill="#263238"/>
<path d="M47.1797 294.618C47.1797 294.618 47.3501 294.689 47.5631 294.717C47.7761 294.746 47.9607 294.717 47.9607 294.717C47.9607 294.717 47.7903 294.646 47.5773 294.618C47.3643 294.589 47.1797 294.582 47.1797 294.618Z" fill="#263238"/>
<path d="M47.5273 293.666C47.5273 293.666 47.6267 293.872 47.8042 294.078C47.9817 294.284 48.145 294.433 48.1663 294.412C48.1876 294.39 48.0669 294.206 47.8894 294C47.7119 293.794 47.5699 293.645 47.5273 293.666Z" fill="#263238"/>
<path d="M47.8823 293.134C47.9107 293.325 47.9975 293.504 48.1308 293.645C48.2341 293.808 48.3819 293.939 48.5568 294.021C48.5568 294.021 48.4006 293.822 48.216 293.574C48.0314 293.325 47.9178 293.119 47.8823 293.134Z" fill="#263238"/>
<path d="M48.2021 295.15C48.3134 295.319 48.4498 295.47 48.6068 295.598C48.7714 295.745 48.9497 295.875 49.1393 295.988C49.2524 296.057 49.3712 296.117 49.4943 296.166C49.5723 296.194 49.6577 296.194 49.7357 296.166C49.7758 296.144 49.8086 296.111 49.83 296.07C49.8515 296.03 49.8606 295.984 49.8564 295.939C49.7894 295.69 49.638 295.473 49.4281 295.324C49.2182 295.175 48.9629 295.103 48.7062 295.122C48.555 295.132 48.4075 295.173 48.2731 295.243C48.1808 295.292 48.1382 295.335 48.1453 295.342C48.3232 295.258 48.5167 295.212 48.7133 295.207C48.9218 295.2 49.1274 295.257 49.3026 295.371C49.516 295.497 49.6733 295.7 49.7428 295.939C49.7428 296.059 49.6434 296.109 49.5227 296.066C49.4058 296.027 49.2938 295.975 49.189 295.91C49.0017 295.805 48.8235 295.683 48.6565 295.548C48.3725 295.307 48.2163 295.15 48.2021 295.15Z" fill="#263238"/>
<path d="M48.2799 295.285C48.2799 295.285 48.4503 295.285 48.642 295.057C48.7447 294.938 48.8199 294.797 48.8621 294.646C48.8955 294.548 48.9038 294.443 48.8865 294.342C48.8691 294.24 48.8266 294.144 48.7627 294.063C48.7118 294.027 48.6493 294.012 48.5875 294.02C48.5257 294.027 48.4691 294.058 48.429 294.106C48.3651 294.18 48.3189 294.267 48.2941 294.362C48.2455 294.509 48.2169 294.661 48.2089 294.816C48.1881 294.959 48.2027 295.106 48.2515 295.242C48.2515 295.242 48.2515 295.079 48.2515 294.83C48.27 294.682 48.3058 294.537 48.358 294.397C48.4006 294.255 48.5284 294.056 48.6491 294.156C48.6979 294.222 48.7298 294.3 48.7422 294.381C48.7545 294.463 48.747 294.546 48.7201 294.624C48.6871 294.763 48.6268 294.893 48.5426 295.008C48.429 295.206 48.2799 295.263 48.2799 295.285Z" fill="#263238"/>
<path d="M42.0391 287.241C42.0391 287.241 42.2379 287.426 42.4793 287.781C42.798 288.237 42.9825 288.773 43.0118 289.329C43.0354 289.883 42.9052 290.434 42.6355 290.919C42.4296 291.295 42.2379 291.48 42.2521 291.494C42.2663 291.508 42.3089 291.459 42.3941 291.373C42.5114 291.247 42.616 291.109 42.7065 290.962C43.0047 290.468 43.1504 289.897 43.1254 289.321C43.0976 288.744 42.8945 288.19 42.5432 287.731C42.4431 287.592 42.3263 287.465 42.1953 287.355C42.103 287.27 42.0462 287.234 42.0391 287.241Z" fill="#263238"/>
<path d="M43.6792 291.826C43.9034 292.231 44.1778 292.605 44.4957 292.941C44.7832 293.301 45.1174 293.621 45.4897 293.893C45.4897 293.893 45.0779 293.438 44.5809 292.863C44.0839 292.288 43.7076 291.812 43.6792 291.826Z" fill="#263238"/>
<path d="M42.4723 290.441C42.4723 290.441 42.4084 290.562 42.3445 290.704C42.2806 290.846 42.2096 290.953 42.2309 290.974C42.2522 290.995 42.3729 290.91 42.451 290.747C42.5291 290.583 42.5007 290.441 42.4723 290.441Z" fill="#263238"/>
<path d="M42.664 289.35C42.6285 289.35 42.6001 289.456 42.5859 289.598C42.5717 289.74 42.5859 289.847 42.6285 289.847C42.6711 289.847 42.6924 289.74 42.6995 289.605C42.7066 289.47 42.6924 289.35 42.664 289.35Z" fill="#263238"/>
<path d="M42.3018 288.34C42.3018 288.34 42.3657 288.461 42.4225 288.595C42.4793 288.73 42.4864 288.858 42.5219 288.858C42.5574 288.858 42.5929 288.723 42.5219 288.553C42.4509 288.382 42.316 288.319 42.3018 288.34Z" fill="#263238"/>
<path d="M41.9751 287.688C41.9751 287.688 41.9751 287.773 41.9751 287.851C41.9751 287.93 42.0532 287.986 42.0816 287.972C42.11 287.958 42.0816 287.894 42.0816 287.816C42.0816 287.738 42.0035 287.681 41.9751 287.688Z" fill="#263238"/>
<path d="M104.37 300.979V300.113L94.9199 300.07L95.0335 303.62H95.6157C98.2143 303.67 108.815 303.698 110.526 303.109C112.372 302.491 104.37 300.979 104.37 300.979Z" fill="#16A75C"/>
<g opacity="0.5">
<path d="M98.3704 303.442C98.2021 302.654 97.7497 301.957 97.0995 301.482C96.4623 301.011 95.6721 300.796 94.8843 300.879L94.9766 303.506L98.3704 303.442Z" fill="white"/>
</g>
<g opacity="0.5">
<path d="M108.268 301.859C108.268 301.859 111.108 302.569 110.76 303.038C110.412 303.507 99.7125 303.883 94.9697 303.641V303.428L107.473 303.095C107.473 303.095 107.721 301.902 108.268 301.859Z" fill="white"/>
</g>
<path d="M94.835 303.428H94.9912H95.4598H97.1638C98.5838 303.428 100.6 303.428 102.801 303.329C105.002 303.229 106.99 303.137 108.431 303.038L110.135 302.91L110.597 302.867H110.135L108.424 302.959C107.004 303.038 104.995 303.137 102.801 303.215C100.607 303.293 98.6051 303.329 97.1638 303.35H95.4598H94.9912C94.9357 303.369 94.8832 303.395 94.835 303.428Z" fill="#263238"/>
<path d="M107.487 303.237C107.55 302.951 107.648 302.675 107.778 302.413C107.935 302.156 108.12 301.918 108.332 301.703C108.057 301.839 107.829 302.055 107.678 302.322C107.528 302.589 107.461 302.896 107.487 303.201V303.237Z" fill="#263238"/>
<path d="M104.668 301.93C104.668 301.93 104.817 301.781 104.952 301.561C105.043 301.433 105.106 301.288 105.137 301.135C105.137 301.135 104.98 301.284 104.853 301.504C104.725 301.724 104.64 301.916 104.668 301.93Z" fill="#263238"/>
<path d="M103.894 301.54C103.894 301.54 104.058 301.455 104.214 301.306C104.37 301.156 104.484 301.014 104.462 300.993C104.441 300.972 104.292 301.071 104.136 301.22C103.98 301.369 103.873 301.54 103.894 301.54Z" fill="#263238"/>
<path d="M103.383 300.688C103.383 300.723 103.603 300.737 103.873 300.73C104.039 300.746 104.207 300.725 104.363 300.666C104.363 300.666 104.143 300.617 103.866 300.617C103.702 300.604 103.537 300.628 103.383 300.688Z" fill="#263238"/>
<path d="M103.191 300.071C103.358 300.172 103.551 300.221 103.745 300.213C103.938 300.239 104.134 300.204 104.306 300.113C104.122 300.1 103.937 300.1 103.752 300.113C103.567 300.083 103.379 300.068 103.191 300.071Z" fill="#263238"/>
<path d="M104.952 301.099C105.152 301.136 105.356 301.136 105.556 301.099C105.773 301.066 105.987 301.011 106.195 300.936C106.32 300.892 106.441 300.838 106.557 300.773C106.628 300.727 106.678 300.656 106.699 300.574C106.707 300.53 106.701 300.484 106.684 300.442C106.666 300.401 106.637 300.365 106.599 300.34C106.448 300.273 106.284 300.24 106.119 300.245C105.953 300.249 105.791 300.29 105.644 300.365C105.496 300.439 105.367 300.546 105.266 300.677C105.165 300.808 105.094 300.959 105.059 301.121C105.059 301.227 105.059 301.284 105.059 301.284C105.114 301.096 105.201 300.919 105.314 300.759C105.447 300.598 105.621 300.478 105.818 300.411C106.046 300.319 106.301 300.319 106.528 300.411C106.621 300.475 106.592 300.588 106.486 300.659C106.379 300.721 106.268 300.774 106.152 300.815C105.95 300.891 105.744 300.952 105.534 301C105.186 301.078 104.952 301.085 104.952 301.099Z" fill="#263238"/>
<path d="M105.116 301.127C105.184 300.999 105.202 300.85 105.165 300.709C105.145 300.549 105.083 300.398 104.988 300.268C104.933 300.182 104.858 300.111 104.768 300.061C104.679 300.012 104.579 299.985 104.477 299.984C104.446 299.991 104.417 300.004 104.392 300.022C104.366 300.04 104.345 300.063 104.328 300.089C104.312 300.116 104.3 300.145 104.295 300.176C104.291 300.207 104.292 300.238 104.299 300.268C104.316 300.363 104.355 300.453 104.413 300.531C104.494 300.664 104.594 300.783 104.711 300.886C104.809 300.988 104.928 301.068 105.059 301.12C105.059 301.12 104.938 301.014 104.768 300.829C104.664 300.722 104.573 300.603 104.498 300.474C104.413 300.354 104.349 300.126 104.498 300.091C104.647 300.055 104.81 300.219 104.903 300.332C104.991 300.448 105.054 300.581 105.087 300.723C105.108 300.857 105.118 300.992 105.116 301.127Z" fill="#263238"/>
<path d="M94.9341 300.829C94.9341 300.829 95.2039 300.829 95.6441 300.829C96.1981 300.878 96.7284 301.077 97.1777 301.405C97.6202 301.738 97.9618 302.188 98.1646 302.704C98.3279 303.101 98.3492 303.371 98.3705 303.371C98.3811 303.308 98.3811 303.243 98.3705 303.18C98.3479 303.008 98.3075 302.839 98.2498 302.675C98.0623 302.13 97.7131 301.654 97.2487 301.312C96.7837 300.971 96.2276 300.776 95.6512 300.751C95.4812 300.734 95.3099 300.734 95.14 300.751C95.0667 300.763 94.9966 300.79 94.9341 300.829Z" fill="#263238"/>
<path d="M99.521 302.499C99.9753 302.581 100.438 302.607 100.898 302.577C101.358 302.578 101.816 302.52 102.262 302.407C102.262 302.371 101.651 302.407 100.891 302.464C100.132 302.52 99.521 302.464 99.521 302.499Z" fill="#263238"/>
<path d="M97.6816 302.549C97.6816 302.549 97.7384 302.676 97.8023 302.818C97.8662 302.96 97.9088 303.074 97.9443 303.074C97.9798 303.074 97.9869 302.925 97.9017 302.762C97.8165 302.598 97.7029 302.527 97.6816 302.549Z" fill="#263238"/>
<path d="M96.9575 301.71C96.9575 301.71 97.0001 301.831 97.0995 301.923C97.1989 302.015 97.2983 302.079 97.3196 302.051C97.3409 302.022 97.277 301.937 97.1776 301.838C97.0782 301.738 96.9788 301.689 96.9575 301.71Z" fill="#263238"/>
<path d="M95.9495 301.348C95.9495 301.348 96.0844 301.348 96.2264 301.419C96.3684 301.49 96.4678 301.533 96.4891 301.511C96.5104 301.49 96.4323 301.362 96.2548 301.313C96.0773 301.263 95.9424 301.32 95.9495 301.348Z" fill="#263238"/>
<path d="M95.2393 301.191C95.2393 301.191 95.2819 301.262 95.36 301.291C95.4381 301.319 95.5162 301.291 95.5233 301.291C95.5304 301.291 95.4807 301.212 95.4026 301.184C95.3245 301.156 95.2464 301.163 95.2393 301.191Z" fill="#263238"/>
<path d="M82.6299 121.91L84.4901 134.463L87.3301 133.923C87.8273 133.895 88.2938 133.674 88.6294 133.306C89.0412 132.702 88.6294 131.886 88.1182 131.346C87.607 130.806 86.9396 130.373 86.7479 129.663C86.5562 128.953 86.9325 128.165 86.9325 127.413C86.8816 126.639 86.6024 125.898 86.1302 125.283C85.6971 124.644 85.1717 124.246 85.1717 122.201" fill="#263238"/>
<path d="M80.0242 148.315C79.868 145.177 79.7615 141.876 79.7615 141.876C79.7615 141.876 83.773 140.995 84.3339 135.684C84.8735 130.615 83.4464 119.049 83.4464 119.049C80.5196 118.045 77.3555 117.96 74.3792 118.807C71.4029 119.653 68.757 121.391 66.7969 123.785L68.4583 149.231C68.5282 149.953 68.7408 150.654 69.0836 151.292C69.4265 151.931 69.8929 152.495 70.4557 152.953C71.0185 153.41 71.6665 153.75 72.362 153.955C73.0576 154.16 73.7868 154.224 74.5075 154.144C76.0023 154.075 77.412 153.429 78.4406 152.342C79.4692 151.255 80.0368 149.812 80.0242 148.315Z" fill="#FFBE9D"/>
<path d="M83.3043 128.194C83.3058 128.367 83.2438 128.535 83.13 128.666C83.0162 128.797 82.8585 128.881 82.6866 128.904C82.5162 128.922 82.3456 128.871 82.2125 128.763C82.0793 128.656 81.9945 128.499 81.9766 128.329C81.9751 128.155 82.0371 127.988 82.1509 127.857C82.2647 127.726 82.4224 127.641 82.5943 127.619C82.7647 127.601 82.9352 127.651 83.0684 127.759C83.2015 127.867 83.2864 128.023 83.3043 128.194Z" fill="#263238"/>
<path d="M83.4746 127.377C83.3965 127.469 82.864 127.121 82.1327 127.157C81.4014 127.192 80.8973 127.59 80.8121 127.505C80.7269 127.419 80.8476 127.306 81.0677 127.121C81.373 126.889 81.7421 126.755 82.1256 126.738C82.5043 126.714 82.8805 126.814 83.1977 127.022C83.432 127.178 83.5101 127.334 83.4746 127.377Z" fill="#263238"/>
<path d="M75.6505 128.704C75.652 128.877 75.5899 129.045 75.4762 129.176C75.3624 129.306 75.2047 129.391 75.0328 129.414C74.8624 129.432 74.6918 129.381 74.5587 129.273C74.4255 129.165 74.3407 129.009 74.3228 128.839C74.3213 128.665 74.3833 128.497 74.4971 128.366C74.6109 128.236 74.7686 128.151 74.9405 128.129C75.1109 128.111 75.2814 128.161 75.4146 128.269C75.5477 128.377 75.6326 128.533 75.6505 128.704Z" fill="#263238"/>
<path d="M75.899 128.037C75.8209 128.13 75.2884 127.775 74.5571 127.817C73.8258 127.86 73.3217 128.243 73.2365 128.158C73.1513 128.073 73.2365 127.959 73.4921 127.782C73.7949 127.544 74.1651 127.407 74.55 127.391C74.9284 127.371 75.3035 127.47 75.6221 127.675C75.8564 127.839 75.97 127.995 75.899 128.037Z" fill="#263238"/>
<path d="M78.8099 133.269C79.187 133.128 79.5808 133.038 79.9814 132.999C80.166 132.999 80.3364 132.921 80.3648 132.793C80.3706 132.599 80.316 132.408 80.2086 132.247L79.5909 130.827C79.0226 129.654 78.5478 128.439 78.1709 127.191C78.833 128.316 79.4052 129.491 79.882 130.706C80.095 131.189 80.2938 131.657 80.4855 132.126C80.6081 132.341 80.6555 132.591 80.6204 132.836C80.5959 132.903 80.5572 132.963 80.5069 133.014C80.4566 133.064 80.396 133.103 80.3293 133.127C80.2284 133.161 80.1232 133.18 80.0169 133.184C79.62 133.264 79.2142 133.293 78.8099 133.269Z" fill="#263238"/>
<path d="M79.7615 141.874C77.2849 142.044 74.8097 141.523 72.6118 140.369C72.6118 140.369 74.5075 143.919 79.7615 143.138V141.874Z" fill="#EB996E"/>
<path d="M77.3106 135.802C77.3959 135.887 77.9733 135.37 78.8418 135.496C79.7104 135.621 80.2124 136.304 80.2977 136.239C80.3831 136.174 80.2827 135.993 80.0517 135.722C79.7457 135.375 79.3285 135.146 78.8719 135.074C78.4278 134.994 77.97 135.091 77.5967 135.345C77.3758 135.586 77.3055 135.807 77.3106 135.802Z" fill="#263238"/>
<path d="M69.0333 129.492C68.4624 129.404 67.8784 129.473 67.3435 129.691C67.0771 129.802 66.8353 129.965 66.6318 130.169C66.4284 130.374 66.2673 130.617 66.1578 130.884C65.9679 131.434 65.9933 132.035 66.2288 132.567C66.4687 133.094 66.8228 133.562 67.2654 133.937C67.5647 134.225 67.9269 134.439 68.3233 134.562C68.5224 134.62 68.7325 134.628 68.9355 134.586C69.1384 134.544 69.328 134.452 69.4877 134.32" fill="#FFBE9D"/>
<path d="M68.87 132.929C68.9339 132.929 68.7067 133.299 68.16 133.185C68.0196 133.148 67.8881 133.083 67.7734 132.994C67.6588 132.905 67.5632 132.794 67.4926 132.667C67.3216 132.384 67.2082 132.07 67.1589 131.744C67.1008 131.396 67.1688 131.038 67.3506 130.735C67.4261 130.608 67.529 130.5 67.6518 130.417C67.7747 130.335 67.9143 130.281 68.0606 130.26C68.586 130.26 68.7706 130.579 68.7138 130.593C68.657 130.608 68.4582 130.466 68.1174 130.593C67.9095 130.684 67.7413 130.847 67.6436 131.052C67.5458 131.256 67.525 131.489 67.5849 131.708C67.6772 132.29 67.9257 132.809 68.2452 132.922C68.5647 133.036 68.87 132.88 68.87 132.929Z" fill="#EB996E"/>
<path d="M82.1331 117.685C82.3896 118.474 82.3836 119.324 82.116 120.108C81.8485 120.893 81.3338 121.57 80.6492 122.037C79.2292 122.939 77.4613 122.818 75.8141 123.031C74.1669 123.244 72.2641 124.132 72.1079 125.779C71.9943 126.78 72.5481 127.845 72.1079 128.768C71.6322 129.847 70.1199 130.103 69.5377 131.125C68.6076 132.773 70.7447 134.732 70.34 136.578L59.4557 134.604C59.4888 134.098 59.6332 133.605 59.8787 133.161C60.1241 132.717 60.4645 132.332 60.8757 132.034C59.8584 132.56 58.9948 133.34 58.3694 134.299L55.146 133.206C55.6038 132.111 56.2943 131.128 57.1697 130.326C58.045 129.524 59.0843 128.922 60.2154 128.562C61.9549 128.001 59.5054 124.899 60.3361 123.28C61.2946 121.448 64.6742 122.336 65.6327 120.504C65.9806 119.836 65.8599 119.027 66.0516 118.296C66.4847 116.634 68.4301 115.832 70.1483 115.804C71.8665 115.775 73.5847 116.272 75.2958 116.102C76.233 116.01 77.1347 115.711 78.0648 115.562C78.9922 115.356 79.9619 115.466 80.8196 115.875C81.2406 116.092 81.5753 116.445 81.7689 116.877C81.9624 117.31 82.0032 117.795 81.8846 118.253" fill="#263238"/>
<path d="M80.8051 121.2C81.5151 123.031 82.573 125.495 84.4545 126.042C85.1645 125.204 85.271 122.442 85.1219 121.15C85.0083 119.836 84.4785 118.592 83.6096 117.6C83.169 117.114 82.6121 116.747 81.9912 116.535C81.3703 116.322 80.7057 116.271 80.0596 116.386" fill="#263238"/>
<path d="M61.635 134.811C61.5687 134.723 61.5226 134.621 61.5001 134.513C61.4284 134.2 61.4284 133.874 61.5001 133.561C61.5916 133.058 61.777 132.576 62.0468 132.141C62.345 131.637 62.7568 131.119 63.0905 130.494C63.4352 129.802 63.5662 129.024 63.4668 128.258C63.3237 127.336 63.3769 126.395 63.623 125.496C63.8092 124.985 64.1894 124.57 64.6809 124.338C65.1707 124.141 65.6837 124.008 66.2074 123.941C66.7041 123.889 67.1752 123.694 67.5635 123.38C67.9117 123.001 68.1562 122.539 68.2735 122.038C68.4083 121.499 68.5791 120.97 68.7847 120.455C69.0109 119.95 69.3232 119.489 69.7077 119.091C70.433 118.324 71.4115 117.845 72.4625 117.742C73.391 117.717 74.3172 117.847 75.2031 118.126C75.9521 118.347 76.7239 118.483 77.5035 118.531C78.1375 118.563 78.7664 118.402 79.3069 118.069C79.7079 117.809 80.0316 117.446 80.2441 117.018C80.4127 116.641 80.4929 116.231 80.4784 115.818C80.5242 115.918 80.546 116.028 80.5423 116.138C80.562 116.459 80.5061 116.78 80.379 117.075C80.1713 117.545 79.8401 117.95 79.4205 118.247C78.8509 118.617 78.1824 118.805 77.5035 118.786C76.701 118.765 75.9044 118.643 75.1321 118.424C74.2765 118.166 73.3841 118.051 72.4909 118.083C71.5268 118.192 70.6318 118.637 69.9633 119.34C69.614 119.712 69.3286 120.139 69.1184 120.604C68.9224 121.106 68.7588 121.621 68.6285 122.144C68.4924 122.71 68.2081 123.23 67.8049 123.65C67.3642 124.01 66.8296 124.237 66.2642 124.303C65.7777 124.361 65.3006 124.48 64.8442 124.658C64.6272 124.746 64.4312 124.879 64.2686 125.048C64.106 125.217 63.9804 125.418 63.8999 125.638C63.6599 126.492 63.6019 127.387 63.7295 128.265C63.7573 128.687 63.7383 129.111 63.6727 129.528C63.6051 129.918 63.4706 130.293 63.2751 130.636C62.913 131.289 62.487 131.793 62.1817 132.269C61.9122 132.672 61.7151 133.119 61.5995 133.59C61.5157 133.994 61.5279 134.412 61.635 134.811Z" fill="#455A64"/>
<path d="M82.2889 117.92C82.2701 118.018 82.2415 118.113 82.2037 118.204C82.104 118.472 81.9779 118.729 81.8274 118.971C81.2723 119.88 80.476 120.618 79.527 121.101C78.8632 121.437 78.1391 121.638 77.397 121.69C76.5702 121.731 75.7416 121.705 74.9191 121.612C74.0384 121.505 73.1461 121.544 72.2779 121.726C71.8283 121.815 71.404 122.002 71.0357 122.275C70.6674 122.547 70.3641 122.898 70.1479 123.302C69.7716 124.161 69.8852 125.169 69.6864 126.142C69.5921 126.641 69.3438 127.098 68.9764 127.449C68.6125 127.744 68.1921 127.961 67.741 128.087C67.348 128.191 66.9757 128.362 66.6405 128.592C66.3469 128.82 66.1211 129.125 65.9873 129.472C65.765 130.133 65.6593 130.827 65.6749 131.524C65.7756 132.579 65.5448 133.638 65.0146 134.556C64.8493 134.795 64.6273 134.99 64.3685 135.124C64.2809 135.174 64.1845 135.208 64.0845 135.223C64.4066 135.038 64.6832 134.783 64.8939 134.477C65.3533 133.563 65.5335 132.533 65.4122 131.517C65.3826 130.795 65.4812 130.074 65.7033 129.387C65.8436 128.986 66.0888 128.631 66.4133 128.357C66.7782 128.11 67.1778 127.919 67.599 127.789C68.0028 127.677 68.3796 127.484 68.7066 127.221C69.0045 126.913 69.2024 126.522 69.2746 126.099C69.4592 125.219 69.3243 124.19 69.7503 123.189C69.9912 122.733 70.3312 122.338 70.7454 122.032C71.1595 121.726 71.6372 121.517 72.143 121.421C73.0512 121.231 73.9847 121.195 74.9049 121.314C75.7103 121.413 76.522 121.451 77.3331 121.428C78.0303 121.388 78.713 121.212 79.3424 120.909C80.2617 120.469 81.0516 119.799 81.6357 118.964C82.1185 118.29 82.2534 117.906 82.2889 117.92Z" fill="#455A64"/>
<path d="M86.3929 125.687C86.2802 125.27 86.1427 124.86 85.9811 124.459C85.7887 124.047 85.4986 123.689 85.1362 123.415C84.6389 123.083 84.1645 122.717 83.7162 122.322C83.2607 121.892 82.9505 121.331 82.8287 120.717C82.7222 120.17 82.7009 119.68 82.6441 119.297C82.5731 118.87 82.4759 118.448 82.353 118.033C82.6692 118.367 82.8642 118.797 82.9068 119.254C83.0914 120.05 83.0559 121.257 83.9718 122.094C84.4049 122.513 84.9019 122.84 85.3279 123.181C85.7223 123.5 86.0238 123.919 86.2012 124.395C86.4089 124.792 86.4764 125.247 86.3929 125.687Z" fill="#455A64"/>
<path d="M75.9064 126.403C75.807 126.588 75.2461 126.481 74.5574 126.446C73.8687 126.41 73.3006 126.446 73.2225 126.24C73.1444 126.034 73.755 125.658 74.5999 125.708C75.4448 125.757 76.0129 126.233 75.9064 126.403Z" fill="#263238"/>
<path d="M83.2407 125.964C83.2407 126.17 82.7082 126.326 82.0621 126.319C81.416 126.312 80.8906 126.135 80.8906 125.929C80.8906 125.723 81.4231 125.567 82.0692 125.581C82.7153 125.595 83.2407 125.758 83.2407 125.964Z" fill="#263238"/>
<path d="M95.8501 188.522C96.0902 187.034 96.5697 185.596 97.2701 184.262C97.2077 185.02 97.0231 185.763 96.7234 186.463C96.5413 187.19 96.2467 187.885 95.8501 188.522Z" fill="#FAFAFA"/>
<path d="M99.2935 194.663L101.658 195.955C103.908 196.949 105.123 197.581 106.038 197.375C107.267 197.056 106.585 195.693 106.585 195.693C106.585 195.693 108.431 196.033 108.815 194.983C108.875 194.764 108.866 194.533 108.788 194.32C108.71 194.108 108.568 193.925 108.381 193.797C108.381 193.797 110.05 194.031 110.632 193.619C111.442 193.051 110.71 192.093 110.71 192.093C113.209 191.994 113.678 190.765 113.316 190.41C112.954 190.055 111.122 189.906 111.122 189.906C109.702 189.572 105.783 188.713 108.062 187.563C110.341 186.413 111.647 184.68 111.676 183.963C111.66 183.805 111.596 183.656 111.494 183.534C111.392 183.412 111.256 183.324 111.103 183.28C110.95 183.237 110.788 183.24 110.637 183.29C110.486 183.339 110.353 183.433 110.256 183.559C109.657 184.175 108.973 184.703 108.225 185.128C107.638 185.498 106.992 185.764 106.315 185.916C105.527 186.086 104.853 186.2 104.278 186.285L101.054 187.13L99.2935 194.663Z" fill="#FFBE9D"/>
<path d="M57.6733 163.239C58.8093 167.946 62.6433 176.417 66.3566 183.36C70.0699 190.304 75.7996 191.93 75.7996 191.93L101.587 197.17L103.561 185.774C103.561 185.774 81.1814 179.874 79.3283 179.384L67.2583 155.869" fill="#16A75C"/>
<path d="M58.5396 152.604C58.6884 152.521 58.8455 152.455 59.0082 152.405C59.4654 152.232 59.9424 152.118 60.4282 152.064C61.2025 151.981 61.9855 152.046 62.7357 152.256C63.7245 152.546 64.6463 153.028 65.4479 153.676C67.4902 155.394 69.1248 157.545 70.2333 159.973C71.4971 162.679 72.9455 165.604 74.4223 168.699L79.4846 179.285L79.3781 179.193L88.5513 181.707L91.1214 182.417L91.8314 182.622C91.9111 182.639 91.9877 182.668 92.0587 182.708C91.9772 182.704 91.8962 182.692 91.8173 182.672L91.1073 182.509L88.5087 181.87L79.2787 179.491H79.2077V179.42C77.7096 176.311 75.963 172.697 74.1028 168.856C72.6331 165.76 71.1847 162.813 69.9493 160.123C68.8799 157.723 67.3001 155.586 65.3201 153.86C64.5481 153.224 63.6611 152.742 62.7073 152.44C61.983 152.222 61.2252 152.138 60.4708 152.192C59.8172 152.278 59.1715 152.416 58.5396 152.604Z" fill="#263238"/>
</svg>
