<svg width="24" height="24" viewBox="0 0 24 24" fill="none" xmlns="http://www.w3.org/2000/svg">
<g clip-path="url(#clip0_7470_245108)">
<path d="M18.7957 12.6848C18.7841 10.7152 19.6765 9.2308 21.4786 8.13625C20.4707 6.69225 18.9458 5.89805 16.9358 5.74499C15.0326 5.59482 12.9504 6.85398 12.1879 6.85398C11.3822 6.85398 9.53963 5.79698 8.08986 5.79698C5.0979 5.84318 1.91821 8.18246 1.91821 12.9419C1.91821 14.3483 2.17524 15.801 2.68931 17.297C3.37665 19.2666 5.85455 24.0924 8.43931 24.0145C9.79089 23.9827 10.7468 23.0556 12.5056 23.0556C14.2124 23.0556 15.0961 24.0145 16.6037 24.0145C19.2115 23.9769 21.4526 19.59 22.1053 17.6147C18.6079 15.9656 18.7957 12.7859 18.7957 12.6848ZM15.7604 3.87646C17.2246 2.13788 17.0917 0.555263 17.0484 -0.0136719C15.7546 0.061416 14.2586 0.867167 13.4067 1.85775C12.4681 2.92053 11.9165 4.23457 12.0349 5.71611C13.4326 5.82297 14.7091 5.10386 15.7604 3.87646Z" fill="#424242"/>
</g>
<defs>
<clipPath id="clip0_7470_245108">
<rect width="24" height="24" fill="white"/>
</clipPath>
</defs>
</svg>
