<svg width="42" height="42" viewBox="0 0 42 42" fill="none" xmlns="http://www.w3.org/2000/svg">
<path d="M25.6999 20.1468L11.1719 17.5874V36.4992C11.172 36.7047 11.2127 36.9081 11.2915 37.0978C11.3702 37.2876 11.4856 37.4599 11.631 37.6051C11.7764 37.7503 11.949 37.8654 12.1389 37.9438C12.3288 38.0223 12.5322 38.0626 12.7377 38.0624H37.8064C38.0121 38.0629 38.2159 38.0229 38.406 37.9446C38.5962 37.8663 38.7691 37.7512 38.9148 37.606C39.0605 37.4608 39.1761 37.2883 39.255 37.0984C39.334 36.9085 39.3747 36.7049 39.3749 36.4992V29.5312L25.6999 20.1468Z" fill="#185C37"/>
<path d="M25.6999 3.9375H12.7377C12.5322 3.93733 12.3288 3.97762 12.1389 4.05609C11.949 4.13455 11.7764 4.24965 11.631 4.3948C11.4856 4.53996 11.3702 4.71233 11.2915 4.90208C11.2127 5.09183 11.172 5.29524 11.1719 5.50069V12.4688L25.6999 21L33.3925 23.5594L39.3749 21V12.4688L25.6999 3.9375Z" fill="#21A366"/>
<path d="M11.1719 12.4688H25.6999V21H11.1719V12.4688Z" fill="#107C41"/>
<path opacity="0.1" d="M21.5695 10.7627H11.1719V32.0908H21.5695C21.9838 32.0888 22.3806 31.9235 22.674 31.6309C22.9673 31.3383 23.1335 30.9419 23.1366 30.5276V12.3259C23.1335 11.9116 22.9673 11.5152 22.674 11.2226C22.3806 10.93 21.9838 10.7648 21.5695 10.7627Z" fill="black"/>
<path opacity="0.2" d="M20.7151 11.6157H11.1719V32.9438H20.7151C21.1294 32.9418 21.5262 32.7766 21.8195 32.484C22.1129 32.1914 22.2791 31.795 22.2822 31.3807V13.1789C22.2791 12.7646 22.1129 12.3682 21.8195 12.0756C21.5262 11.783 21.1294 11.6178 20.7151 11.6157Z" fill="black"/>
<path opacity="0.2" d="M20.7151 11.6157H11.1719V31.2376H20.7151C21.1294 31.2355 21.5262 31.0703 21.8195 30.7777C22.1129 30.4851 22.2791 30.0887 22.2822 29.6744V13.1789C22.2791 12.7646 22.1129 12.3682 21.8195 12.0756C21.5262 11.783 21.1294 11.6178 20.7151 11.6157Z" fill="black"/>
<path opacity="0.2" d="M19.8606 11.6157H11.1719V31.2376H19.8606C20.2749 31.2355 20.6718 31.0703 20.9651 30.7777C21.2584 30.4851 21.4246 30.0887 21.4278 29.6744V13.1789C21.4246 12.7646 21.2584 12.3682 20.9651 12.0756C20.6718 11.783 20.2749 11.6178 19.8606 11.6157Z" fill="black"/>
<path d="M4.19212 11.6157H19.8608C20.2758 11.6154 20.674 11.7798 20.9679 12.0729C21.2617 12.3661 21.4272 12.7639 21.4279 13.1789V28.8213C21.4272 29.2363 21.2617 29.6341 20.9679 29.9272C20.674 30.2204 20.2758 30.3848 19.8608 30.3845H4.19212C3.98656 30.3848 3.78295 30.3446 3.59291 30.2663C3.40288 30.1879 3.23016 30.0728 3.08462 29.9276C2.93909 29.7825 2.82358 29.61 2.74472 29.4202C2.66585 29.2304 2.62517 29.0268 2.625 28.8213V13.1789C2.62517 12.9733 2.66585 12.7698 2.74472 12.58C2.82358 12.3902 2.93909 12.2177 3.08462 12.0726C3.23016 11.9274 3.40288 11.8123 3.59291 11.7339C3.78295 11.6555 3.98656 11.6154 4.19212 11.6157Z" fill="url(#paint0_linear_13625_84707)"/>
<path d="M7.48145 26.0831L10.7771 20.9854L7.75838 15.9165H10.1826L11.8298 19.1623C11.982 19.4694 12.0923 19.6978 12.1421 19.8501H12.1644C12.2721 19.6033 12.3863 19.3658 12.5057 19.1334L14.2671 15.9218H16.4983L13.4021 20.9618L16.5771 26.0871H14.2028L12.2996 22.5289C12.2113 22.3759 12.1362 22.2156 12.0752 22.0498H12.0437C11.9882 22.2114 11.9142 22.366 11.8232 22.5105L9.86363 26.0831H7.48145Z" fill="white"/>
<path d="M37.808 3.9375H25.7002V12.4688H39.3751V5.50069C39.375 5.29513 39.3343 5.09161 39.2554 4.90178C39.1766 4.71194 39.061 4.53951 38.9155 4.39434C38.77 4.24917 38.5973 4.1341 38.4072 4.05571C38.2172 3.97733 38.0136 3.93716 37.808 3.9375Z" fill="#33C481"/>
<path d="M25.7002 21H39.3751V29.5312H25.7002V21Z" fill="#107C41"/>
<defs>
<linearGradient id="paint0_linear_13625_84707" x1="5.89837" y1="10.3872" x2="18.1545" y2="31.613" gradientUnits="userSpaceOnUse">
<stop stop-color="#18884F"/>
<stop offset="0.5" stop-color="#117E43"/>
<stop offset="1" stop-color="#0B6631"/>
</linearGradient>
</defs>
</svg>
