<svg width="12" height="8" viewBox="0 0 12 8" fill="none" xmlns="http://www.w3.org/2000/svg">
<path d="M5.99998 1.90002C5.80125 1.90313 5.60399 1.9347 5.41422 1.99377C5.502 2.14815 5.54874 2.32244 5.54997 2.50002C5.54997 2.63791 5.52282 2.77445 5.47005 2.90184C5.41728 3.02923 5.33994 3.14498 5.24244 3.24249C5.14493 3.33999 5.02918 3.41733 4.90179 3.4701C4.7744 3.52287 4.63786 3.55002 4.49997 3.55002C4.32239 3.54879 4.14809 3.50205 3.99372 3.41427C3.87193 3.83667 3.88612 4.28669 4.0343 4.70057C4.18247 5.11445 4.45711 5.47122 4.81932 5.72035C5.18152 5.96947 5.61293 6.09832 6.05243 6.08863C6.49193 6.07895 6.91725 5.93123 7.26813 5.66639C7.61901 5.40156 7.87767 5.03304 8.00747 4.61303C8.13728 4.19303 8.13164 3.74282 7.99136 3.3262C7.85108 2.90957 7.58327 2.54765 7.22587 2.29168C6.86846 2.03572 6.43958 1.8987 5.99998 1.90002ZM11.3347 3.72627C10.3179 1.74234 8.30492 0.400024 5.99998 0.400024C3.69503 0.400024 1.68147 1.74327 0.665215 3.72646C0.622323 3.81131 0.599976 3.90505 0.599976 4.00012C0.599976 4.09519 0.622323 4.18893 0.665215 4.27377C1.68203 6.25771 3.69503 7.60002 5.99998 7.60002C8.30492 7.60002 10.3185 6.25677 11.3347 4.27359C11.3776 4.18874 11.4 4.095 11.4 3.99993C11.4 3.90486 11.3776 3.81112 11.3347 3.72627ZM5.99998 6.70002C4.15028 6.70002 2.45453 5.66877 1.53878 4.00002C2.45453 2.33127 4.1501 1.30002 5.99998 1.30002C7.84985 1.30002 9.54542 2.33127 10.4612 4.00002C9.54561 5.66877 7.84985 6.70002 5.99998 6.70002Z" fill="white"/>
</svg>
