<svg width="20" height="21" viewBox="0 0 20 21" fill="none" xmlns="http://www.w3.org/2000/svg">
<path d="M14.84 17.222C14.7684 17.3091 14.6783 17.3793 14.5763 17.4273C14.4742 17.4754 14.3628 17.5002 14.25 17.5C14.1519 17.5006 14.0547 17.4814 13.9641 17.4436C13.8736 17.4058 13.7916 17.3502 13.723 17.28L10.719 14.272C10.5786 14.1314 10.4997 13.9408 10.4997 13.742C10.4997 13.5433 10.5786 13.3526 10.719 13.212C10.7885 13.1422 10.8711 13.0869 10.9621 13.0491C11.053 13.0113 11.1505 12.9918 11.249 12.9918C11.3475 12.9918 11.445 13.0113 11.536 13.0491C11.6269 13.0869 11.7095 13.1422 11.779 13.212L13.5 14.944V4.25001C13.5 4.0511 13.579 3.86033 13.7197 3.71968C13.8603 3.57903 14.0511 3.50001 14.25 3.50001C14.4489 3.50001 14.6397 3.57903 14.7803 3.71968C14.921 3.86033 15 4.0511 15 4.25001V14.934L16.722 13.216C16.7915 13.1464 16.874 13.0911 16.9649 13.0534C17.0557 13.0157 17.1531 12.9963 17.2515 12.9963C17.3499 12.9963 17.4473 13.0157 17.5381 13.0534C17.629 13.0911 17.7115 13.1464 17.781 13.216C17.9215 13.3566 18.0004 13.5473 18.0004 13.746C18.0004 13.9448 17.9215 14.1354 17.781 14.276L14.839 17.222H14.84ZM6.34001 3.77801C6.26837 3.6909 6.17829 3.62077 6.07626 3.5727C5.97423 3.52462 5.8628 3.4998 5.75001 3.50001C5.6519 3.49944 5.55468 3.51862 5.46414 3.55642C5.3736 3.59422 5.29159 3.64985 5.22301 3.72001L2.22001 6.72801C2.07956 6.86864 2.00067 7.05926 2.00067 7.25801C2.00067 7.45676 2.07956 7.64739 2.22001 7.78801C2.28951 7.8578 2.3721 7.91317 2.46306 7.95095C2.55401 7.98873 2.65152 8.00818 2.75001 8.00818C2.8485 8.00818 2.94602 7.98873 3.03697 7.95095C3.12792 7.91317 3.21051 7.8578 3.28001 7.78801L5.00001 6.05701V16.75C5.00001 16.9489 5.07903 17.1397 5.21968 17.2803C5.36033 17.421 5.5511 17.5 5.75001 17.5C5.94892 17.5 6.13969 17.421 6.28034 17.2803C6.42099 17.1397 6.50001 16.9489 6.50001 16.75V6.06601L8.22201 7.78401C8.29149 7.85365 8.37402 7.90889 8.46488 7.94658C8.55574 7.98428 8.65314 8.00368 8.75151 8.00368C8.84988 8.00368 8.94728 7.98428 9.03814 7.94658C9.129 7.90889 9.21153 7.85365 9.28101 7.78401C9.42146 7.64339 9.50035 7.45276 9.50035 7.25401C9.50035 7.05526 9.42146 6.86464 9.28101 6.72401L6.33901 3.77701L6.34001 3.77801Z" fill="#069550"/>
</svg>
