<svg width="21" height="21" viewBox="0 0 21 21" fill="none" xmlns="http://www.w3.org/2000/svg">
<circle cx="10.0516" cy="6.47277" r="0.615107" fill="white"/>
<ellipse cx="10.052" cy="4.51168" rx="0.441615" ry="0.441615" fill="white"/>
<ellipse cx="10.0617" cy="3.98336" rx="0.441615" ry="0.441615" fill="white"/>
<ellipse cx="10.0617" cy="3.32369" rx="0.441615" ry="0.441615" fill="white"/>
<ellipse cx="10.0617" cy="2.79513" rx="0.441615" ry="0.441615" fill="white"/>
<rect x="9.87109" y="0.858643" width="0.36035" height="1.67036" rx="0.180175" fill="white"/>
<ellipse cx="10.052" cy="2.13546" rx="0.441615" ry="0.441615" fill="white"/>
<path d="M3.65778 10.4165L16.3973 10.4165L20.0761 10.8625H0.230522L3.65778 10.4165Z" fill="white"/>
<path d="M0.230522 10.8625H20.0761L19.2887 13.4801C19.1616 13.9028 18.7724 14.1921 18.3311 14.1921H2.09135C1.66468 14.1921 1.28501 13.9213 1.14595 13.518L0.230522 10.8625Z" fill="white"/>
<path d="M5.92685 7.54082H14.3754L17.1858 8.46602H2.91657L5.92685 7.54082Z" fill="white"/>
<path d="M2.91526 8.46599H17.187L16.5616 10.5531H3.48189L2.91526 8.46599Z" fill="white"/>
<path d="M5.42612 5.68466H14.6743L14.3092 7.5408H5.86057L5.42612 5.68466Z" fill="white"/>
<path d="M10.0594 4.74219L14.6761 5.6887H5.44266L10.0594 4.74219Z" fill="white"/>
<path fill-rule="evenodd" clip-rule="evenodd" d="M2.04395 14.929C2.04395 14.3767 2.49166 13.929 3.04395 13.929H17.058C17.6103 13.929 18.058 14.3767 18.058 14.929V18.7752C18.058 19.3275 17.6103 19.7752 17.058 19.7752H3.04394C2.49166 19.7752 2.04395 19.3275 2.04395 18.7752V14.929ZM3.80948 15.0584C3.80948 14.962 3.88766 14.8838 3.98409 14.8838H5.74249C5.83892 14.8838 5.9171 14.962 5.9171 15.0584V18.0722C5.9171 18.1686 5.83892 18.2468 5.74249 18.2468H3.98409C3.88766 18.2468 3.80948 18.1686 3.80948 18.0722V15.0584ZM7.49679 14.8838C7.40036 14.8838 7.32218 14.962 7.32218 15.0584V18.0722C7.32218 18.1686 7.40036 18.2468 7.49679 18.2468H9.25519C9.35162 18.2468 9.4298 18.1686 9.4298 18.0722V15.0584C9.4298 14.962 9.35162 14.8838 9.25519 14.8838H7.49679ZM10.8349 15.0584C10.8349 14.962 10.9131 14.8838 11.0095 14.8838H12.7679C12.8643 14.8838 12.9425 14.962 12.9425 15.0584V18.0722C12.9425 18.1686 12.8643 18.2468 12.7679 18.2468H11.0095C10.9131 18.2468 10.8349 18.1686 10.8349 18.0722V15.0584ZM14.5222 14.8838C14.4258 14.8838 14.3476 14.962 14.3476 15.0584V18.0722C14.3476 18.1686 14.4258 18.2468 14.5222 18.2468H16.2806C16.377 18.2468 16.4552 18.1686 16.4552 18.0722V15.0584C16.4552 14.962 16.377 14.8838 16.2806 14.8838H14.5222Z" fill="white"/>
</svg>
