<svg width="20" height="24" viewBox="0 0 20 24" fill="none" xmlns="http://www.w3.org/2000/svg">
<g clip-path="url(#clip0_7264_246443)">
<path d="M12.2857 0H2.57149C1.65661 0 0.856934 0.79968 0.856934 1.71456V22.2864C0.856934 23.2003 1.65661 24.001 2.57149 24.001H17.4285C18.3424 24.001 19.143 23.2013 19.143 22.2864V6.85728L15.1427 4.00032L12.2857 0Z" fill="#673AB7"/>
<path d="M7.71389 17.7136H14.5712V16.5712H7.71389V17.7136ZM7.71389 10.2851V11.4275H14.5712V10.2851H7.71389ZM6.68477 10.8573C6.68477 11.3142 6.34205 11.7712 5.77085 11.7712C5.19965 11.7712 4.85693 11.4285 4.85693 10.8573C4.85693 10.2861 5.19965 9.94336 5.77085 9.94336C6.34205 9.94336 6.68477 10.3994 6.68477 10.8573ZM6.68477 14.057C6.68477 14.5139 6.34205 14.9709 5.77085 14.9709C5.19965 14.9709 4.85693 14.6282 4.85693 14.057C4.85693 13.4858 5.19965 13.143 5.77085 13.143C6.34205 13.143 6.68477 13.6 6.68477 14.057ZM6.68477 17.1424C6.68477 17.5994 6.34205 18.0563 5.77085 18.0563C5.19965 18.0563 4.85693 17.7136 4.85693 17.1424C4.85693 16.5712 5.19965 16.2285 5.77085 16.2285C6.34205 16.2285 6.68477 16.6854 6.68477 17.1424ZM7.71389 14.8566H14.5712V13.7133H7.71389V14.8566Z" fill="#F1F1F1"/>
<path d="M12.7437 6.40039L19.144 12.6865V6.85735L12.7437 6.40039Z" fill="url(#paint0_linear_7264_246443)"/>
<path d="M12.2866 0V5.14272C12.2866 6.05664 13.0863 6.85728 14.0012 6.85728H19.1439L12.2866 0Z" fill="#B39DDB"/>
<path d="M2.57149 0C1.65661 0 0.856934 0.79968 0.856934 1.71456V1.8288C0.856934 0.91392 1.65661 0.11424 2.57149 0.11424H12.2857V0H2.57149Z" fill="white" fill-opacity="0.2"/>
<path d="M17.4285 23.8855H2.57149C1.65661 23.8855 0.856934 23.0858 0.856934 22.1709V22.2851C0.856934 23.1991 1.65661 23.9997 2.57149 23.9997H17.4285C18.3424 23.9997 19.143 23.2 19.143 22.2851V22.1709C19.143 23.0858 18.3424 23.8855 17.4285 23.8855Z" fill="#311B92" fill-opacity="0.2"/>
<path d="M13.9993 6.85714C13.0854 6.85714 12.2848 6.05746 12.2848 5.14258V5.25682C12.2848 6.17074 13.0845 6.97138 13.9993 6.97138H19.1421V6.85714H13.9993Z" fill="#311B92" fill-opacity="0.1"/>
<path d="M12.2857 0H2.57149C1.65661 0 0.856934 0.79968 0.856934 1.71456V22.2864C0.856934 23.2003 1.65661 24.001 2.57149 24.001H17.4285C18.3424 24.001 19.143 23.2013 19.143 22.2864V6.85728L12.2857 0Z" fill="url(#paint1_radial_7264_246443)"/>
</g>
<defs>
<linearGradient id="paint0_linear_7264_246443" x1="15.9434" y1="6.90068" x2="15.9434" y2="12.7105" gradientUnits="userSpaceOnUse">
<stop stop-color="#311B92" stop-opacity="0.2"/>
<stop offset="1" stop-color="#311B92" stop-opacity="0.02"/>
</linearGradient>
<radialGradient id="paint1_radial_7264_246443" cx="0" cy="0" r="1" gradientUnits="userSpaceOnUse" gradientTransform="translate(1.43544 0.640515) scale(235.868 235.866)">
<stop stop-color="white" stop-opacity="0.1"/>
<stop offset="1" stop-color="white" stop-opacity="0"/>
</radialGradient>
<clipPath id="clip0_7264_246443">
<rect width="18.2861" height="24" fill="white" transform="translate(0.856934)"/>
</clipPath>
</defs>
</svg>
