<svg width="24" height="24" viewBox="0 0 24 24" fill="none" xmlns="http://www.w3.org/2000/svg">
<g clip-path="url(#clip0_7470_245091)">
<path d="M17.7008 15.9254C20.7439 14.2545 23.0508 12.9813 23.2497 12.8823C23.8858 12.544 24.5427 11.6487 23.2497 10.9533C22.8322 10.7346 20.5846 9.501 17.7008 7.91016L13.7031 11.9475L17.7008 15.9253V15.9254Z" fill="#FFD900"/>
<path d="M13.7036 11.9482L0.974487 24.7773C1.27327 24.8168 1.61058 24.7376 2.00827 24.519C2.84321 24.062 11.6943 19.2283 17.7013 15.9271L13.7036 11.9482Z" fill="#F43249"/>
<path d="M13.704 11.9479L17.7016 7.93039C17.7016 7.93039 2.90395 -0.145325 2.00864 -0.622044C1.67133 -0.821825 1.29333 -0.881169 0.955078 -0.821825L13.704 11.9479Z" fill="#00EE76"/>
<path d="M13.7035 11.9474L0.954656 -0.822266C0.43725 -0.702641 0 -0.245516 0 0.68936V23.2648C0 24.1205 0.338344 24.7368 0.974437 24.7962L13.7035 11.9474Z" fill="#00D3FF"/>
</g>
<defs>
<clipPath id="clip0_7470_245091">
<rect width="24" height="25.6875" fill="white" transform="translate(0 -0.84375)"/>
</clipPath>
</defs>
</svg>
