<svg width="34" height="34" viewBox="0 0 34 34" fill="none" xmlns="http://www.w3.org/2000/svg">
<path d="M28.25 0.125H5.75C4.25816 0.125 2.82742 0.717632 1.77252 1.77252C0.717632 2.82742 0.125 4.25816 0.125 5.75V28.25C0.125 29.7418 0.717632 31.1726 1.77252 32.2275C2.82742 33.2824 4.25816 33.875 5.75 33.875H28.25C29.7418 33.875 31.1726 33.2824 32.2275 32.2275C33.2824 31.1726 33.875 29.7418 33.875 28.25V5.75C33.875 4.25816 33.2824 2.82742 32.2275 1.77252C31.1726 0.717632 29.7418 0.125 28.25 0.125ZM9.5 7.625C10.0563 7.625 10.6 7.78995 11.0625 8.09899C11.5251 8.40803 11.8855 8.84729 12.0984 9.3612C12.3113 9.87512 12.367 10.4406 12.2585 10.9862C12.1499 11.5318 11.8821 12.0329 11.4887 12.4262C11.0954 12.8196 10.5943 13.0874 10.0487 13.196C9.50312 13.3045 8.93762 13.2488 8.4237 13.0359C7.90979 12.823 7.47053 12.4626 7.16149 12C6.85245 11.5375 6.6875 10.9938 6.6875 10.4375C6.6875 9.69158 6.98382 8.97621 7.51126 8.44876C8.03871 7.92132 8.75408 7.625 9.5 7.625ZM30.125 27.9312C30.1664 28.4706 29.9923 29.0044 29.6409 29.4156C29.2894 29.8268 28.7892 30.0819 28.25 30.125H5.75L19.9437 17.3375C20.1821 17.1201 20.493 16.9996 20.8156 16.9996C21.1382 16.9996 21.4492 17.1201 21.6875 17.3375L30.125 25.7375V27.9312Z" fill="#E0E0E0"/>
</svg>
