<svg width="20" height="21" viewBox="0 0 20 21" fill="none" xmlns="http://www.w3.org/2000/svg">
<path d="M16.6667 3.35864H3.33335C2.41669 3.35864 1.67502 4.10864 1.67502 5.02531L1.66669 15.0253C1.66669 15.942 2.41669 16.692 3.33335 16.692H16.6667C17.5834 16.692 18.3334 15.942 18.3334 15.0253V5.02531C18.3334 4.10864 17.5834 3.35864 16.6667 3.35864ZM3.33335 7.52531H12.0834V10.442H3.33335V7.52531ZM3.33335 12.1086H12.0834V15.0253H4.16669C3.70835 15.0253 3.33335 14.6503 3.33335 14.192V12.1086ZM15.8334 15.0253H13.75V7.52531H16.6667V14.192C16.6667 14.6503 16.2917 15.0253 15.8334 15.0253Z" fill="white"/>
</svg>
