<svg width="12" height="20" viewBox="0 0 12 20" fill="none" xmlns="http://www.w3.org/2000/svg">
<path d="M10.3748 14.9999H1.62484V3.33325H10.3748V14.9999ZM7.6665 17.4999H4.33317V16.6666H7.6665V17.4999ZM9.33317 0.833252H2.6665C2.00346 0.833252 1.36758 1.09664 0.898737 1.56548C0.429896 2.03433 0.166504 2.67021 0.166504 3.33325V16.6666C0.166504 17.3296 0.429896 17.9655 0.898737 18.4344C1.36758 18.9032 2.00346 19.1666 2.6665 19.1666H9.33317C9.99621 19.1666 10.6321 18.9032 11.1009 18.4344C11.5698 17.9655 11.8332 17.3296 11.8332 16.6666V3.33325C11.8332 2.67021 11.5698 2.03433 11.1009 1.56548C10.6321 1.09664 9.99621 0.833252 9.33317 0.833252Z" fill="#424242"/>
</svg>
