<svg width="42" height="42" viewBox="0 0 42 42" fill="none" xmlns="http://www.w3.org/2000/svg">
<path d="M31.6309 2.71973L38.9336 10.3322V39.2807H11.6533V39.3752H39.0268V10.428L31.6309 2.71973Z" fill="#909090"/>
<path d="M31.5407 2.625H11.5605V39.2805H38.934V10.3333L31.5407 2.625Z" fill="#F4F4F4"/>
<path d="M11.3595 4.59375H2.97266V13.5542H29.3539V4.59375H11.3595Z" fill="#7A7B7C"/>
<path d="M29.4946 13.4021H3.14355V4.43506H29.4946V13.4021Z" fill="#DD2025"/>
<path d="M11.8805 5.95103H10.165V12.251H11.5143V10.1261L11.8122 10.1432C12.1017 10.1382 12.3885 10.0863 12.6614 9.98959C12.9007 9.90729 13.1208 9.77736 13.3085 9.60765C13.4994 9.44598 13.65 9.24193 13.7482 9.01178C13.8798 8.62918 13.9268 8.22257 13.886 7.82003C13.8778 7.53247 13.8274 7.24767 13.7364 6.97478C13.6535 6.77778 13.5305 6.60019 13.3753 6.45331C13.2201 6.30643 13.0359 6.19348 12.8347 6.12165C12.6606 6.05865 12.4808 6.01293 12.2979 5.98515C12.1593 5.96377 12.0194 5.95237 11.8792 5.95103M11.6311 8.9619H11.5143V7.0194H11.7676C11.8794 7.01134 11.9916 7.0285 12.0959 7.06962C12.2001 7.11074 12.2938 7.17476 12.37 7.25696C12.528 7.46829 12.6123 7.72553 12.6102 7.98934C12.6102 8.31221 12.6102 8.6049 12.3189 8.81096C12.1089 8.92642 11.87 8.97971 11.6311 8.9619ZM16.4493 5.93396C16.3036 5.93396 16.1619 5.94446 16.0621 5.9484L15.7497 5.95628H14.726V12.2563H15.9309C16.3913 12.2689 16.8498 12.1909 17.2801 12.0266C17.6265 11.8892 17.9332 11.6677 18.1726 11.3822C18.4054 11.094 18.5725 10.7585 18.6622 10.3991C18.7653 9.99204 18.8156 9.57341 18.8118 9.15353C18.8372 8.65761 18.7989 8.16047 18.6976 7.67434C18.6015 7.3165 18.4215 6.98671 18.1726 6.71228C17.9773 6.49068 17.7382 6.31192 17.4704 6.18728C17.2404 6.08085 16.9985 6.00242 16.7499 5.95365C16.651 5.93732 16.5508 5.92985 16.4506 5.93134M16.2117 11.0987H16.0805V7.07715H16.0975C16.3681 7.04602 16.6419 7.09484 16.885 7.21759C17.0631 7.35977 17.2082 7.53889 17.3103 7.74259C17.4205 7.95697 17.484 8.19226 17.4967 8.43296C17.5085 8.72171 17.4967 8.95796 17.4967 9.15353C17.502 9.3788 17.4875 9.60411 17.4534 9.82684C17.4129 10.0555 17.3381 10.2768 17.2315 10.4831C17.1109 10.6749 16.9479 10.8366 16.7551 10.9556C16.5932 11.0603 16.4014 11.1092 16.2091 11.0947M22.8766 5.95628H19.6872V12.2563H21.0365V9.75728H22.7427V8.58653H21.0365V7.12703H22.874V5.95628" fill="#464648"/>
<path d="M28.5879 26.5847C28.5879 26.5847 32.7721 25.8261 32.7721 27.2554C32.7721 28.6847 30.18 28.1033 28.5879 26.5847ZM25.4943 26.6937C24.8295 26.8406 24.1817 27.0556 23.561 27.3355L24.086 26.1542C24.611 24.973 25.1557 23.3625 25.1557 23.3625C25.7822 24.4169 26.5111 25.407 27.3318 26.3183C26.7129 26.4106 26.0995 26.5368 25.4943 26.6963V26.6937ZM23.838 18.1624C23.838 16.9169 24.2409 16.5769 24.5546 16.5769C24.8683 16.5769 25.2213 16.7279 25.2331 17.8094C25.1309 18.8968 24.9032 19.9688 24.5546 21.004C24.077 20.1349 23.8298 19.158 23.8366 18.1664L23.838 18.1624ZM17.7361 31.9647C16.4525 31.1969 20.4281 28.833 21.1486 28.7569C21.1447 28.7582 19.0801 32.7679 17.7361 31.9647ZM33.9941 27.4247C33.981 27.2935 33.8628 25.8405 31.2772 25.9022C30.1995 25.8849 29.1223 25.9608 28.0576 26.1293C27.0264 25.0903 26.1383 23.9184 25.4169 22.6446C25.8714 21.3314 26.1464 19.9627 26.2346 18.5759C26.1965 17.0009 25.8198 16.0979 24.6123 16.111C23.4048 16.1241 23.229 17.1807 23.3878 18.753C23.5433 19.8097 23.8368 20.8413 24.2606 21.8217C24.2606 21.8217 23.7028 23.5581 22.9651 25.2854C22.2275 27.0126 21.7235 27.9182 21.7235 27.9182C20.4408 28.3358 19.2334 28.9562 18.147 29.7557C17.0655 30.7624 16.6258 31.5355 17.1954 32.3085C17.6863 32.9753 19.4043 33.1262 20.94 31.1142C21.7559 30.0749 22.5013 28.9823 23.1712 27.8434C23.1712 27.8434 25.5127 27.2016 26.2411 27.0257C26.9696 26.8499 27.8503 26.7107 27.8503 26.7107C27.8503 26.7107 29.9883 28.8619 32.0503 28.7858C34.1122 28.7097 34.0125 27.5534 33.9993 27.4274" fill="#DD2025"/>
<path d="M31.4395 2.72607V10.4344H38.8328L31.4395 2.72607Z" fill="#909090"/>
<path d="M31.541 2.625V10.3333H38.9343L31.541 2.625Z" fill="#F4F4F4"/>
<path d="M11.7799 5.84995H10.0645V12.15H11.419V10.0263L11.7182 10.0434C12.0077 10.0384 12.2945 9.98655 12.5674 9.88983C12.8066 9.8075 13.0268 9.67757 13.2145 9.50789C13.404 9.34578 13.5532 9.14177 13.6502 8.91201C13.7818 8.52942 13.8289 8.12281 13.788 7.72026C13.7798 7.43271 13.7294 7.14791 13.6384 6.87501C13.5555 6.67802 13.4326 6.50043 13.2773 6.35355C13.1221 6.20667 12.938 6.09372 12.7367 6.02189C12.5619 5.95827 12.3812 5.91211 12.1973 5.88408C12.0587 5.8627 11.9188 5.85129 11.7786 5.84995M11.5305 8.86083H11.4137V6.91833H11.6683C11.7801 6.91026 11.8923 6.92743 11.9966 6.96855C12.1009 7.00967 12.1946 7.07369 12.2708 7.15589C12.4287 7.36722 12.513 7.62446 12.511 7.88826C12.511 8.21114 12.511 8.50383 12.2196 8.70989C12.0097 8.82534 11.7707 8.87732 11.5318 8.85951M16.3487 5.83289C16.203 5.83289 16.0613 5.84339 15.9615 5.84733L15.6531 5.8552H14.6293V12.1552H15.8342C16.2947 12.1678 16.7531 12.0898 17.1835 11.9255C17.5298 11.7881 17.8366 11.5667 18.076 11.2811C18.3087 10.9929 18.4758 10.6574 18.5655 10.298C18.6686 9.89097 18.7189 9.47234 18.7151 9.05245C18.7406 8.55653 18.7022 8.0594 18.601 7.57326C18.5049 7.21543 18.3249 6.88564 18.076 6.6112C17.8806 6.3896 17.6416 6.21085 17.3738 6.0862C17.1438 5.97978 16.9019 5.90134 16.6532 5.85258C16.5543 5.83624 16.4542 5.82877 16.354 5.83026M16.1151 10.9976H15.9838V6.97608H16.0009C16.2715 6.94494 16.5452 6.99377 16.7884 7.11651C16.9664 7.25869 17.1115 7.43781 17.2136 7.64151C17.3238 7.85589 17.3874 8.09118 17.4 8.33189C17.4118 8.62064 17.4 8.85689 17.4 9.05245C17.4054 9.27772 17.3909 9.50303 17.3567 9.72576C17.3162 9.95444 17.2415 10.1757 17.1349 10.382C17.0143 10.5738 16.8513 10.7355 16.6585 10.8545C16.4965 10.9592 16.3048 11.0081 16.1125 10.9936M22.776 5.8552H19.5866V12.1552H20.9359V9.6562H22.6421V8.48545H20.9359V7.02595H22.7734V5.8552" fill="white"/>
</svg>
