<svg width="20" height="20" viewBox="0 0 20 20" fill="none" xmlns="http://www.w3.org/2000/svg">
<path d="M17.3184 2.68129C17.234 2.59733 17.1275 2.53921 17.0112 2.51374C16.895 2.48828 16.7739 2.49653 16.6621 2.53754L2.91213 7.53754C2.79355 7.58252 2.69146 7.66251 2.61942 7.76689C2.54737 7.87126 2.50879 7.99509 2.50879 8.12191C2.50879 8.24874 2.54737 8.37257 2.61942 8.47694C2.69146 8.58132 2.79355 8.66131 2.91213 8.70629L8.28088 10.85L12.2434 6.87504L13.1246 7.75629L9.14338 11.7375L11.2934 17.1063C11.3397 17.2226 11.4199 17.3223 11.5235 17.3925C11.6271 17.4627 11.7495 17.5002 11.8746 17.5C12.0009 17.4974 12.1235 17.4566 12.2261 17.383C12.3288 17.3094 12.4067 17.2064 12.4496 17.0875L17.4496 3.33754C17.4922 3.22696 17.5025 3.10656 17.4792 2.99037C17.456 2.87417 17.4002 2.76698 17.3184 2.68129Z" fill="white"/>
</svg>
