<svg width="45" height="45" viewBox="0 0 45 45" fill="none" xmlns="http://www.w3.org/2000/svg">
<rect width="45" height="45" rx="22.5" fill="#1E88E5"/>
<path d="M27.75 22.5001C30.6666 22.5001 33 24.8334 33 27.7501C33 28.7767 32.7083 29.7451 32.195 30.5501L35.7883 34.1667L34.1666 35.7884L30.5266 32.2067C29.7216 32.7084 28.765 33.0001 27.75 33.0001C24.8333 33.0001 22.5 30.6667 22.5 27.7501C22.5 24.8334 24.8333 22.5001 27.75 22.5001ZM27.75 24.8334C26.9764 24.8334 26.2345 25.1407 25.6876 25.6877C25.1406 26.2347 24.8333 26.9765 24.8333 27.7501C24.8333 28.5236 25.1406 29.2655 25.6876 29.8125C26.2345 30.3595 26.9764 30.6667 27.75 30.6667C28.5235 30.6667 29.2654 30.3595 29.8124 29.8125C30.3593 29.2655 30.6666 28.5236 30.6666 27.7501C30.6666 26.9765 30.3593 26.2347 29.8124 25.6877C29.2654 25.1407 28.5235 24.8334 27.75 24.8334ZM30.6666 17.8334H12V29.5001H20.365C20.5633 30.3401 20.9016 31.1217 21.3333 31.8334H12C11.3811 31.8334 10.7876 31.5876 10.35 31.15C9.91246 30.7124 9.66663 30.1189 9.66663 29.5001V15.5001C9.66663 14.2051 10.705 13.1667 12 13.1667H19L21.3333 15.5001H30.6666C31.2855 15.5001 31.879 15.7459 32.3165 16.1835C32.7541 16.6211 33 17.2146 33 17.8334V22.2784C32.3233 21.6367 31.5416 21.1117 30.6666 20.7501V17.8334Z" fill="white"/>
</svg>
