<svg width="161" height="160" viewBox="0 0 161 160" fill="none" xmlns="http://www.w3.org/2000/svg">
<path d="M144.5 80C144.5 89.5049 142.424 98.534 138.697 106.646C128.595 128.692 106.334 144 80.5 144C54.6665 144 32.4049 128.692 22.3032 106.646C18.5757 98.534 16.5 89.5049 16.5 80C16.5 44.653 45.153 16 80.5 16C115.847 16 144.5 44.653 144.5 80Z" fill="#F4F7FC"/>
<path d="M131.912 48.4885V71.079H28.0594V37.1067C28.0594 32.8312 31.5259 29.3936 35.7725 29.3936H53.5097C56.1385 29.3936 58.594 30.7224 60.0095 32.9179L62.8117 37.2511C64.2272 39.4466 66.6538 40.8043 69.2826 40.8043H124.228C128.474 40.7754 131.912 44.242 131.912 48.4885Z" fill="url(#paint0_linear_13101_10174)"/>
<path d="M122.552 56.0287V67.9017H37.4191V56.0287C37.4191 53.6021 39.3835 51.6377 41.839 51.6377H118.161C120.588 51.6377 122.552 53.6021 122.552 56.0287Z" fill="url(#paint1_linear_13101_10174)"/>
<path d="M143.958 74.0252L134.078 114.873C132.807 120.102 128.127 123.799 122.725 123.799H37.2458C31.8437 123.799 27.1638 120.102 25.8928 114.873L16.0131 74.0252C14.3665 67.2077 19.5374 60.6212 26.5572 60.6212H133.414C140.463 60.5923 145.634 67.1788 143.958 74.0252Z" fill="url(#paint2_linear_13101_10174)"/>
<path d="M100.366 111.956L109.726 121.316L105.941 125.1L96.5818 115.74L100.366 111.956Z" fill="url(#paint3_linear_13101_10174)"/>
<path d="M127.348 136.539L112.037 121.228C110.332 119.524 107.559 119.524 105.855 121.228C104.15 122.933 104.15 125.706 105.855 127.411L121.165 142.721C122.87 144.426 125.643 144.426 127.348 142.721C129.052 140.988 129.052 138.244 127.348 136.539Z" fill="url(#paint4_linear_13101_10174)"/>
<path d="M103.168 77.9836C114.377 89.1921 114.377 107.305 103.168 118.513C91.9596 129.722 73.8179 129.722 62.6094 118.542C51.4008 107.363 51.4297 89.1921 62.6383 77.9836C73.8468 66.775 91.9885 66.775 103.168 77.9836Z" fill="url(#paint5_linear_13101_10174)"/>
<path d="M98.4595 113.805C89.8797 122.385 75.9268 122.414 67.3471 113.805C58.7673 105.225 58.7673 91.3012 67.3759 82.6926C75.9557 74.1129 89.8797 74.1129 98.4595 82.6926C107.039 91.3012 107.039 105.225 98.4595 113.805Z" fill="url(#paint6_linear_13101_10174)"/>
<path d="M78.1512 94.8245C78.1223 96.6733 76.6201 98.1177 74.8002 98.0889C72.9514 98.06 71.5069 96.5578 71.5358 94.7379C71.5647 92.9179 73.0669 91.4735 74.8868 91.5024C76.7357 91.5024 78.1801 92.9757 78.1512 94.8245Z" fill="url(#paint7_linear_13101_10174)"/>
<path d="M76.7357 96.0086C76.7357 96.673 76.1868 97.193 75.5513 97.1641C74.8868 97.1641 74.3958 96.6153 74.3958 95.9797C74.3958 95.3442 74.9446 94.8242 75.5802 94.8242C76.2157 94.8531 76.7357 95.3731 76.7357 96.0086Z" fill="white"/>
<path d="M88.4642 94.9694C88.4353 96.8182 89.8798 98.2915 91.6997 98.3204C93.5485 98.3493 95.0218 96.9049 95.0507 95.0561C95.0796 93.2361 93.6352 91.734 91.7864 91.7051C89.9953 91.7051 88.4931 93.1495 88.4642 94.9694Z" fill="url(#paint8_linear_13101_10174)"/>
<path d="M89.8509 96.2407C89.8509 96.9051 90.3709 97.4251 91.0064 97.4251C91.6709 97.4251 92.1908 96.9051 92.1908 96.2695C92.1908 95.634 91.6709 95.0851 91.0353 95.0851C90.3998 95.0562 89.8509 95.5762 89.8509 96.2407Z" fill="white"/>
<path d="M88.9841 107.766C85.7198 104.415 80.4044 104.357 77.0534 107.564C76.649 107.968 75.9845 107.939 75.5801 107.535C75.1757 107.13 75.2046 106.466 75.609 106.062C79.74 102.046 86.3842 102.104 90.4574 106.293C90.8619 106.697 90.833 107.362 90.4286 107.766C90.0241 108.199 89.3886 108.17 88.9841 107.766Z" fill="url(#paint9_linear_13101_10174)"/>
<path d="M118.551 52.1529C123.55 57.1516 131.654 57.1516 136.653 52.1529C141.652 47.1542 141.652 39.0497 136.653 34.051C131.654 29.0523 123.55 29.0523 118.551 34.051C113.552 39.0497 113.552 47.1542 118.551 52.1529Z" fill="url(#paint10_linear_13101_10174)"/>
<path fill-rule="evenodd" clip-rule="evenodd" d="M132.127 40.3865C132.627 39.8866 132.627 39.0762 132.127 38.5763C131.628 38.0764 130.817 38.0764 130.317 38.5763L127.602 41.2914L124.887 38.5761C124.387 38.0762 123.576 38.0762 123.077 38.5761C122.577 39.076 122.577 39.8864 123.077 40.3863L125.792 43.1016L123.076 45.8171C122.577 46.3169 122.577 47.1274 123.076 47.6273C123.576 48.1271 124.387 48.1271 124.887 47.6273L127.602 44.9118L130.317 47.6271C130.817 48.1269 131.628 48.1269 132.128 47.6271C132.627 47.1272 132.627 46.3167 132.128 45.8169L129.412 43.1016L132.127 40.3865Z" fill="white"/>
<defs>
<linearGradient id="paint0_linear_13101_10174" x1="79.9897" y1="40.9644" x2="79.9897" y2="60.1405" gradientUnits="userSpaceOnUse">
<stop stop-color="#989FB0"/>
<stop offset="1" stop-color="#AAB2C5"/>
</linearGradient>
<linearGradient id="paint1_linear_13101_10174" x1="79.9897" y1="51.6382" x2="79.9897" y2="67.9026" gradientUnits="userSpaceOnUse">
<stop stop-color="#D6DCE8"/>
<stop offset="0.5027" stop-color="white"/>
</linearGradient>
<linearGradient id="paint2_linear_13101_10174" x1="15.7015" y1="92.1945" x2="144.28" y2="92.1945" gradientUnits="userSpaceOnUse">
<stop stop-color="#D6DCE8"/>
<stop offset="0.5027" stop-color="white"/>
</linearGradient>
<linearGradient id="paint3_linear_13101_10174" x1="96.5938" y1="118.522" x2="109.732" y2="118.522" gradientUnits="userSpaceOnUse">
<stop stop-color="#989FB0"/>
<stop offset="1" stop-color="#AAB2C5"/>
</linearGradient>
<linearGradient id="paint4_linear_13101_10174" x1="113.526" y1="135.056" x2="119.698" y2="128.883" gradientUnits="userSpaceOnUse">
<stop stop-color="#989FB0"/>
<stop offset="1" stop-color="#AAB2C5"/>
</linearGradient>
<linearGradient id="paint5_linear_13101_10174" x1="62.6235" y1="118.532" x2="103.174" y2="77.9818" gradientUnits="userSpaceOnUse">
<stop stop-color="#989FB0"/>
<stop offset="1" stop-color="#AAB2C5"/>
</linearGradient>
<linearGradient id="paint6_linear_13101_10174" x1="60.9151" y1="98.255" x2="104.893" y2="98.255" gradientUnits="userSpaceOnUse">
<stop stop-color="#D6DCE8"/>
<stop offset="0.5027" stop-color="white"/>
</linearGradient>
<linearGradient id="paint7_linear_13101_10174" x1="71.5402" y1="94.7136" x2="78.1457" y2="94.818" gradientUnits="userSpaceOnUse">
<stop stop-color="#989FB0"/>
<stop offset="1" stop-color="#AAB2C5"/>
</linearGradient>
<linearGradient id="paint8_linear_13101_10174" x1="95.0795" y1="95.0856" x2="88.4741" y2="94.9812" gradientUnits="userSpaceOnUse">
<stop stop-color="#989FB0"/>
<stop offset="1" stop-color="#AAB2C5"/>
</linearGradient>
<linearGradient id="paint9_linear_13101_10174" x1="75.3334" y1="105.434" x2="90.7843" y2="105.678" gradientUnits="userSpaceOnUse">
<stop stop-color="#989FB0"/>
<stop offset="1" stop-color="#AAB2C5"/>
</linearGradient>
<linearGradient id="paint10_linear_13101_10174" x1="128.054" y1="58.9411" x2="127.602" y2="31.7882" gradientUnits="userSpaceOnUse">
<stop stop-color="#DB7E77"/>
<stop offset="1" stop-color="#F7625E"/>
</linearGradient>
</defs>
</svg>
