<svg width="20" height="21" viewBox="0 0 20 21" fill="none" xmlns="http://www.w3.org/2000/svg">
<path d="M17.2583 8.24167L12.2583 3.24167C12.1815 3.16671 12.091 3.10729 11.9917 3.06667C11.8883 3.02468 11.7782 3.00208 11.6667 3H5C4.33696 3 3.70107 3.26339 3.23223 3.73223C2.76339 4.20107 2.5 4.83696 2.5 5.5V15.5C2.5 16.163 2.76339 16.7989 3.23223 17.2678C3.70107 17.7366 4.33696 18 5 18H15C15.663 18 16.2989 17.7366 16.7678 17.2678C17.2366 16.7989 17.5 16.163 17.5 15.5V8.83333C17.5006 8.72366 17.4796 8.61494 17.4381 8.51341C17.3967 8.41188 17.3356 8.31953 17.2583 8.24167ZM7.5 4.66667H10.8333V6.33333H7.5V4.66667ZM12.5 16.3333H7.5V13.8333C7.5 13.6123 7.5878 13.4004 7.74408 13.2441C7.90036 13.0878 8.11232 13 8.33333 13H11.6667C11.8877 13 12.0996 13.0878 12.2559 13.2441C12.4122 13.4004 12.5 13.6123 12.5 13.8333V16.3333ZM15.8333 15.5C15.8333 15.721 15.7455 15.933 15.5893 16.0893C15.433 16.2455 15.221 16.3333 15 16.3333H14.1667V13.8333C14.1667 13.1703 13.9033 12.5344 13.4344 12.0656C12.9656 11.5967 12.3297 11.3333 11.6667 11.3333H8.33333C7.67029 11.3333 7.03441 11.5967 6.56557 12.0656C6.09673 12.5344 5.83333 13.1703 5.83333 13.8333V16.3333H5C4.77899 16.3333 4.56702 16.2455 4.41074 16.0893C4.25446 15.933 4.16667 15.721 4.16667 15.5V5.5C4.16667 5.27899 4.25446 5.06702 4.41074 4.91074C4.56702 4.75446 4.77899 4.66667 5 4.66667H5.83333V7.16667C5.83333 7.38768 5.92113 7.59964 6.07741 7.75592C6.23369 7.9122 6.44565 8 6.66667 8H11.6667C11.8877 8 12.0996 7.9122 12.2559 7.75592C12.4122 7.59964 12.5 7.38768 12.5 7.16667V5.84167L15.8333 9.175V15.5Z" fill="#069550"/>
</svg>
