<svg width="42" height="42" viewBox="0 0 42 42" fill="none" xmlns="http://www.w3.org/2000/svg">
<path d="M37.8077 3.9375H12.7377C12.5322 3.93733 12.3288 3.97763 12.1389 4.05609C11.949 4.13455 11.7764 4.24965 11.631 4.39481C11.4856 4.53996 11.3702 4.71233 11.2915 4.90208C11.2127 5.09183 11.172 5.29524 11.1719 5.50069V12.4688L25.6999 16.7344L39.3749 12.4688V5.50069C39.3747 5.29513 39.334 5.09161 39.2552 4.90178C39.1763 4.71194 39.0608 4.53951 38.9153 4.39434C38.7697 4.24917 38.597 4.1341 38.407 4.05571C38.2169 3.97733 38.0133 3.93716 37.8077 3.9375Z" fill="#41A5EE"/>
<path d="M39.3749 12.4688H11.1719V21L25.6999 23.5594L39.3749 21V12.4688Z" fill="#2B7CD3"/>
<path d="M11.1719 21V29.5312L24.8455 31.2375L39.3749 29.5312V21H11.1719Z" fill="#185ABD"/>
<path d="M12.7377 38.0625H37.8064C38.0121 38.063 38.2159 38.023 38.406 37.9447C38.5962 37.8664 38.7691 37.7513 38.9148 37.6061C39.0605 37.4609 39.1761 37.2884 39.255 37.0985C39.334 36.9086 39.3747 36.705 39.3749 36.4993V29.5312H11.1719V36.4993C11.172 36.7048 11.2127 36.9082 11.2915 37.0979C11.3702 37.2877 11.4856 37.46 11.631 37.6052C11.7764 37.7504 11.949 37.8654 12.1389 37.9439C12.3288 38.0224 12.5322 38.0627 12.7377 38.0625Z" fill="#103F91"/>
<path opacity="0.1" d="M21.5695 10.7627H11.1719V32.0908H21.5695C21.9838 32.0888 22.3806 31.9235 22.674 31.6309C22.9673 31.3383 23.1335 30.9419 23.1366 30.5276V12.3259C23.1335 11.9116 22.9673 11.5152 22.674 11.2226C22.3806 10.93 21.9838 10.7648 21.5695 10.7627Z" fill="black"/>
<path opacity="0.2" d="M20.7151 11.6157H11.1719V32.9438H20.7151C21.1294 32.9418 21.5262 32.7766 21.8195 32.484C22.1129 32.1914 22.2791 31.795 22.2822 31.3807V13.1789C22.2791 12.7646 22.1129 12.3682 21.8195 12.0756C21.5262 11.783 21.1294 11.6178 20.7151 11.6157Z" fill="black"/>
<path opacity="0.2" d="M20.7151 11.6157H11.1719V31.2376H20.7151C21.1294 31.2355 21.5262 31.0703 21.8195 30.7777C22.1129 30.4851 22.2791 30.0887 22.2822 29.6744V13.1789C22.2791 12.7646 22.1129 12.3682 21.8195 12.0756C21.5262 11.783 21.1294 11.6178 20.7151 11.6157Z" fill="black"/>
<path opacity="0.2" d="M19.8606 11.6157H11.1719V31.2376H19.8606C20.2749 31.2355 20.6718 31.0703 20.9651 30.7777C21.2584 30.4851 21.4246 30.0887 21.4278 29.6744V13.1789C21.4246 12.7646 21.2584 12.3682 20.9651 12.0756C20.6718 11.783 20.2749 11.6178 19.8606 11.6157Z" fill="black"/>
<path d="M4.19212 11.6157H19.8608C20.2758 11.6154 20.674 11.7798 20.9679 12.0729C21.2617 12.3661 21.4272 12.7639 21.4279 13.1789V28.8213C21.4272 29.2363 21.2617 29.6341 20.9679 29.9272C20.674 30.2204 20.2758 30.3848 19.8608 30.3845H4.19212C3.98656 30.3848 3.78295 30.3446 3.59291 30.2663C3.40288 30.1879 3.23016 30.0728 3.08462 29.9276C2.93909 29.7825 2.82358 29.61 2.74472 29.4202C2.66585 29.2304 2.62517 29.0268 2.625 28.8213V13.1789C2.62517 12.9733 2.66585 12.7698 2.74472 12.58C2.82358 12.3902 2.93909 12.2177 3.08462 12.0726C3.23016 11.9274 3.40288 11.8123 3.59291 11.7339C3.78295 11.6555 3.98656 11.6154 4.19212 11.6157Z" fill="url(#paint0_linear_13625_84717)"/>
<path d="M9.0559 23.6095C9.08609 23.851 9.10709 24.061 9.11627 24.2408H9.15302C9.16615 24.0702 9.19502 23.8641 9.23834 23.6239C9.28165 23.3837 9.31971 23.1803 9.35515 23.0136L11.0023 15.9169H13.1338L14.8401 22.9073C14.9395 23.3397 15.0105 23.7781 15.0527 24.2198H15.0816C15.1129 23.7898 15.1721 23.3624 15.2588 22.9401L16.6225 15.9077H18.561L16.167 26.077H13.9003L12.2768 19.3491C12.2295 19.1548 12.1761 18.902 12.1166 18.5905C12.0571 18.279 12.0204 18.0515 12.0064 17.908H11.9788C11.9605 18.0733 11.9237 18.3188 11.8686 18.6443C11.8135 18.9711 11.7701 19.2113 11.7373 19.3688L10.2109 26.0809H7.90615L5.49902 15.9169H7.46777L8.95221 23.028C8.99652 23.22 9.03112 23.414 9.0559 23.6095Z" fill="white"/>
<defs>
<linearGradient id="paint0_linear_13625_84717" x1="5.89837" y1="10.3872" x2="18.1545" y2="31.613" gradientUnits="userSpaceOnUse">
<stop stop-color="#2368C4"/>
<stop offset="0.5" stop-color="#1A5DBE"/>
<stop offset="1" stop-color="#1146AC"/>
</linearGradient>
</defs>
</svg>
