<svg width="45" height="45" viewBox="0 0 45 45" fill="none" xmlns="http://www.w3.org/2000/svg">
<rect width="45" height="45" rx="22.5" fill="#D32F2F"/>
<path d="M24.8333 22.4998L20.75 24.8332V20.1665L24.8333 22.4998Z" fill="white" stroke="white" stroke-width="1.5" stroke-linecap="round" stroke-linejoin="round"/>
<path d="M10.8334 23.3247V21.6739C10.8334 18.2964 10.8334 16.6071 11.8892 15.5209C12.9462 14.4336 14.6099 14.3869 17.936 14.2924C19.511 14.2481 21.121 14.2166 22.5 14.2166C23.8779 14.2166 25.4879 14.2481 27.064 14.2924C30.3902 14.3869 32.0539 14.4336 33.1097 15.5209C34.1667 16.6071 34.1667 18.2976 34.1667 21.6739V23.3247C34.1667 26.7034 34.1667 28.3916 33.1109 29.4789C32.0539 30.5651 30.3914 30.6129 27.064 30.7062C25.489 30.7517 23.879 30.7832 22.5 30.7832C20.9784 30.7786 19.4569 30.753 17.936 30.7062C14.6099 30.6129 12.9462 30.5662 11.8892 29.4789C10.8334 28.3916 10.8334 26.7022 10.8334 23.3259V23.3247Z" stroke="white" stroke-width="1.5"/>
</svg>
